<?xml version="1.0" standalone="no"?><!DOCTYPE svg PUBLIC "-//W3C//DTD SVG 1.1//EN" "http://www.w3.org/Graphics/SVG/1.1/DTD/svg11.dtd"><svg t="1739585132812" class="icon" viewBox="0 0 1843 1024" version="1.1" xmlns="http://www.w3.org/2000/svg" p-id="5369" xmlns:xlink="http://www.w3.org/1999/xlink" width="359.9609375" height="200"><path d="M346.4192 307.2l160.6144 388.6592V307.2h160.512l114.0736 276.992L895.488 307.2h147.712v409.6h-90.6752V418.9184L825.6 716.8h-90.624l-124.3648-307.2v307.2H416.3584l-33.6384-93.0816H188.416L154.7776 716.8H51.2l171.008-409.6h124.2112z m1114.112 0l93.184 123.3408L1667.6864 307.2H1792l-171.008 204.8L1792 716.8h-113.9712l-113.9712-132.608L1450.1376 716.8H1084.928V307.2h375.5008z m-56.9856 93.0816h-227.8912v69.888h207.1552v83.7632h-207.1552v81.408h217.5488L1496.7808 512l-93.2352-111.7184zM279.1424 388.6592L222.1056 532.992h114.0224L279.1424 388.608z" fill="#1071B2" p-id="5370"></path></svg>