<?xml version="1.0" standalone="no"?><!DOCTYPE svg PUBLIC "-//W3C//DTD SVG 1.1//EN" "http://www.w3.org/Graphics/SVG/1.1/DTD/svg11.dtd"><svg t="1739585452106" class="icon" viewBox="0 0 1706 1024" version="1.1" xmlns="http://www.w3.org/2000/svg" p-id="12714" xmlns:xlink="http://www.w3.org/1999/xlink" width="333.203125" height="200"><path d="M851.511943 891.448467A508.358546 508.358546 0 0 0 1194.665339 1023.999431c282.90813 0 511.999431-229.432634 511.999431-511.54432C1706.66477 229.433203 1477.573469 0.000569 1194.665339 0.000569a508.301657 508.301657 0 0 0-343.153396 132.550964A512.226986 512.226986 0 0 0 682.665908 512.455111a509.723878 509.723878 0 0 0 168.846035 378.993356z" fill="#FAB31E" p-id="12715"></path><path d="M1021.438865 457.159172c-1.706665-18.204424-5.119994-36.067515-8.988434-54.385717h-312.831653c3.41333-18.204424 8.988434-36.067515 14.108429-53.475496h283.761462c-6.428437-18.318202-13.198208-36.977737-21.333309-54.442607h-240.639733c8.988434-18.261313 18.375091-36.977737 29.07019-54.385717h181.646021a475.818138 475.818138 0 0 0-38.911957-53.475496h-103.423885c15.815094-19.569756 33.279963-37.77418 52.167053-54.442606A513.933651 513.933651 0 0 0 511.999431 0.000569C229.944633 0.000569 0 229.433203 0 512.455111 0 794.566797 229.944633 1023.999431 511.999431 1023.999431a510.57721 510.57721 0 0 0 344.063618-132.550964c18.375091-16.611537 35.498627-34.474628 51.256832-53.532385h-103.423885a627.483747 627.483747 0 0 1-38.911957-54.442606h181.247799c11.548432-17.407981 21.33331-35.669294 29.923522-54.328828h-240.639733c-8.135102-17.464869-15.815094-35.271072-22.186642-53.589274h284.159684c5.973327-17.407981 10.695099-36.124404 14.961762-54.385718 3.41333-17.407981 7.28177-36.067515 8.988434-54.385717a572.756697 572.756697 0 0 0 0-109.624767z" fill="#E40520" p-id="12716"></path><path d="M1617.918202 660.70739c0-10.239989 7.167992-17.464869 15.53065-17.464869 9.6711 0 16.327093 7.623103 16.327093 17.464869 0 9.443545-7.111103 17.464869-16.327093 17.46487-8.760879 0.455111-15.473761-8.021324-15.473761-17.46487z m15.53065 13.027541a12.743097 12.743097 0 0 0 12.970652-13.027541 12.743097 12.743097 0 0 0-12.970652-12.970652c-5.859549 0-12.11732 5.34755-12.11732 12.970652s5.859549 13.027541 12.11732 13.027541z m-1.706665-5.404438h-3.299552v-14.791095h9.6711c1.649776 0.910221 1.649776 2.673775 1.649776 4.494218 0 0.910221-0.853332 2.673775-2.559997 3.583996l3.41333 6.25777h-4.209773l-1.706665-5.347549h-2.503108l-0.398222 5.80266v-8.533324h1.706665c0.796444 0 1.649776 0 1.649775-0.853332 0.796444 0 0.796444-0.910221 0.796444-1.820443 0 0 0-0.910221-0.796444-0.910221 0-0.853332-0.853332 0-1.706664 0h-1.706665v12.11732z m-452.94883-256.682381l-9.614212 59.164378c-19.228423-10.353766-33.052408-14.791095-48.526168-14.791094-40.618622 0-69.518145 42.552842-69.518145 102.968774 0 41.699509 19.285312 66.787481 51.086166 66.787481 12.970652 0 28.444413-4.494217 46.079948-13.880873l-9.6711 62.236375c-20.081755 5.404438-33.052408 8.533324-47.729725 8.533324-58.993712 0-95.459449-45.226616-95.459449-118.726979 0-97.166114 50.289722-165.717149 122.310975-165.717149 9.557323 0 17.976869 0.853332 25.031083 2.673774l21.78842 5.404439c7.111103 2.275553 8.817768 3.128885 14.222207 5.34755z m-174.933139 40.789288h-5.063106c-17.976869 0-28.444413 9.386656-45.226616 36.238181l5.063106-34.474628h-49.43639l-33.90574 222.662864h54.442606c20.081755-136.191849 25.144861-159.516267 51.086166-159.516267h3.35644c5.006217-26.851526 12.11732-46.079949 20.935088-63.999929l-1.251554-0.910221z m-313.571207 221.297531a110.307433 110.307433 0 0 1-38.911957 7.566214c-27.647969 0-43.178619-16.554648-43.178619-49.265723 0-5.34755 0.853332-12.970652 1.706665-19.285312l3.356441-22.357308 2.503108-17.46487 23.438196-151.893164h53.589274l-6.257771 33.166185h27.591081l-7.111103 54.613273h-27.192859l-14.677317 92.728786c-0.853332 3.640885-0.853332 6.31466-0.853333 9.443545 0 11.207099 5.063105 15.701316 18.033758 15.701316 5.859549 0 11.320876 0 14.677317-1.820443l-6.712881 48.867501zM481.393243 524.515542c0 27.818636 12.11732 47.502169 40.561733 62.293264 22.641753 11.207099 25.998193 14.791095 25.998193 24.177751 0 13.880873-9.6711 20.593755-31.00441 20.593755-16.327093 0-30.947521-2.673775-48.526168-8.533324l-7.964436 51.086165 2.503108 0.910221 9.671101 1.763554c3.299552 0.910221 7.964436 1.820442 14.620428 1.820442 12.11732 1.763554 22.584864 1.763554 29.297745 1.763554 57.343936 0 84.138573-23.26753 84.138573-74.353695 0-30.435522-11.263987-48.355502-38.115513-62.236375-23.438196-11.207099-25.941305-13.880873-25.941304-24.177751 0-12.11732 9.6711-17.464869 26.794637-17.46487a324.266306 324.266306 0 0 1 38.911956 2.673775l7.964436-51.086165a303.444996 303.444996 0 0 0-47.729725-4.494218c-60.302155 0-82.033687 34.531517-81.180354 75.263917z m1112.29032 151.893164h-51.086166l2.503108-21.503976c-14.620428 16.554648-30.151078 24.177751-50.232833 24.177751-39.765289 0-65.706594-36.295071-65.706593-91.818565 0-74.353695 40.618622-137.10207 88.348346-137.10207 21.731531 0 37.205292 10.296877 51.882609 30.492411l12.174209-77.937691h53.589273l-41.471953 273.69214z m-79.985689-51.996386c25.144861 0 42.325286-31.345743 42.325286-75.263917 0-28.615079-9.6711-43.406174-28.444413-43.406174-24.348417 0-42.325286 30.435522-42.325286 74.353695 0 29.582189 9.6711 44.373284 28.444413 44.373284z m-657.236603 47.502169c-19.228423 6.712881-36.408848 9.386656-56.490604 9.386656-60.700377 0-91.704787-34.474628-91.704787-99.839889 0-76.231026 39.822178-132.607853 94.606117-132.607853 45.226616 0 73.727918 31.288854 73.727918 80.611466 0 16.554648-1.706665 32.255964-7.111103 55.580383h-107.633659c-0.853332 2.673775-0.853332 4.437328-0.853332 6.257771 0 25.941305 16.327093 38.968846 47.786614 38.968846 20.081755 0 37.205292-3.583996 56.490604-13.880874l-8.817768 55.523494z m-30.151078-132.550964v-11.263987c0-18.375091-9.614212-28.671968-25.941305-28.671968-17.180425 0-29.297745 13.937762-34.702183 39.879066h60.643488zM274.602362 676.408706h-53.589274l30.947521-210.545544-70.314589 210.545544h-37.26218l-4.209774-208.78199-32.995518 208.78199H56.888826l42.268397-273.23703H177.493136l2.503108 169.756256 51.939498-169.756256H316.870759l-42.268397 273.23703z m133.916295-98.986556c-5.006217 0-7.964436-0.910221-12.11732-0.910222-30.151078 0-46.079949 12.11732-46.079948 34.474629 0 13.880873 7.167992 22.414197 19.3422 22.414197 22.527975-0.455111 38.058624-22.869308 38.855068-55.978604z m39.822178 98.986556h-44.828394l0.853332-23.324418c-13.823985 18.375091-32.255964 26.908415-57.343936 26.908414-29.354634 0-49.43639-24.177751-49.43639-60.472821 0-54.613273 34.759072-86.015904 95.45945-86.015905 5.859549 0 13.823985 0.910221 22.584863 1.763554 1.706665-7.566214 1.706665-10.239989 1.706665-13.823985 0-14.791095-9.6711-20.650644-34.759072-20.650644a174.648695 174.648695 0 0 0-45.226617 5.404439l-7.964435 2.673775-5.006217 0.910221 7.964436-50.175944c26.794637-8.533324 45.226616-11.207099 64.853261-11.207099 46.933281 0 72.021253 22.414197 72.021253 64.967039 0 11.207099-0.796444 19.285312-4.152884 44.373284l-12.174209 78.791023-1.706665 13.880874-0.796443 11.207099-0.853332 8.533323c0 0.853332-1.251554 6.257771-1.251555 6.257771z m818.004425-98.986556c-5.916438 0-8.817768-0.910221-12.174209-0.910222-31.00441 0-46.876392 12.11732-46.876392 34.474629 0 13.880873 7.964436 22.414197 20.081755 22.414197 21.390198-0.455111 38.115513-22.869308 38.968846-55.978604z m39.765289 98.986556h-45.226617l0.796444-23.324418c-13.767096 18.375091-32.199075 26.908415-57.287048 26.908414-29.354634 0-49.43639-24.177751-49.436389-60.472821 0-54.613273 34.702184-86.015904 95.459449-86.015905 5.859549 0 13.823985 0.910221 21.731532 1.763554 1.706665-7.566214 2.559997-10.239989 2.559997-13.823985 0-14.791095-9.6711-20.650644-34.759072-20.650644a181.475354 181.475354 0 0 0-46.079949 5.404439l-7.111104 2.673775-5.006216 0.910221 7.964435-50.175944c26.737748-8.533324 45.226616-11.207099 64.853262-11.207099 46.933281 0 71.22481 22.414197 71.224809 64.967039 0 11.207099 0 19.285312-4.209773 44.373284l-11.320876 78.791023-1.706665 13.880874-1.649776 11.207099-0.796443 8.533323v6.257771z m145.237172-223.971306h-5.006217c-18.033758 0-28.444413 9.386656-45.226616 36.238181l5.006216-34.474628h-49.3795l-33.109297 222.662864h53.646163c20.081755-136.191849 25.087972-159.516267 51.029276-159.516267h3.41333c5.006217-26.851526 12.060431-46.079949 20.878199-63.999929l-1.251554-0.910221z" fill="#FFFFFF" p-id="12717"></path></svg>