<?xml version="1.0" standalone="no"?><!DOCTYPE svg PUBLIC "-//W3C//DTD SVG 1.1//EN" "http://www.w3.org/Graphics/SVG/1.1/DTD/svg11.dtd"><svg t="1739417318713" class="icon" viewBox="0 0 1024 1024" version="1.1" xmlns="http://www.w3.org/2000/svg" p-id="9765" xmlns:xlink="http://www.w3.org/1999/xlink" width="200" height="200"><path d="M-34.13333333-34.13333333m68.26666666 0l955.73333334 0q68.26666667 0 68.26666666 68.26666666l0 955.73333334q0 68.26666667-68.26666666 68.26666666l-955.73333334 0q-68.26666667 0-68.26666666-68.26666666l0-955.73333334q0-68.26666667 68.26666666-68.26666666Z" fill="#F6F7FB" p-id="9766"></path><path d="M582.07573333 439.15946667c5.90506667-11.79306667 24.6272-11.79306667 30.53226667 0L651.81013333 517.56373333H542.8736l39.20213333-78.40426666zM682.68373333 227.4304h-52.44586666l-9.84746667 17.06666667h62.29333333c9.40373333 0 17.06666667 7.64586667 17.06666667 17.06666666v238.93333334c0 9.4208-7.66293333 17.06666667-17.06666667 17.06666666h-11.79306666l-43.008-86.03306666a33.96266667 33.96266667 0 0 0-30.53226667-18.87573334 33.96266667 33.96266667 0 0 0-30.54933333 18.87573334l-36.4032 72.8576-22.95466667-64.256-11.19573333 19.38773333L516.98346667 517.56373333H462.7456L452.88106667 534.6304h229.80266666a34.13333333 34.13333333 0 0 0 34.13333334-34.13333333V261.56373333a34.13333333 34.13333333 0 0 0-34.13333334-34.13333333z" fill="#A1A8BA" p-id="9767"></path><path d="M370.50026667 517.54666667l57.15626666-160.03413334A16.6912 16.6912 0 0 1 443.73333333 346.18026667c5.81973333 0 13.1072 2.9696 16.0768 11.33226666l13.84106667 38.74133334 11.19573333-19.38773334-8.96-25.088A33.792 33.792 0 0 0 443.73333333 329.1136a33.792 33.792 0 0 0-32.1536 22.66453333l-59.20426666 165.76853334H341.33333333a17.06666667 17.06666667 0 0 1-17.06666666-17.06666667v-238.93333333a17.06666667 17.06666667 0 0 1 17.06666666-17.06666667h219.93813334l9.86453333-17.06666667H341.33333333a34.13333333 34.13333333 0 0 0-34.13333333 34.13333334v238.93333333a34.13333333 34.13333333 0 0 0 34.13333333 34.13333333h52.4288l9.84746667-17.06666666h-33.10933333zM622.93333333 188.89386667a8.4992 8.4992 0 0 0-11.65653333 3.1232L397.94346667 561.49333333a8.53333333 8.53333333 0 0 0 14.77973333 8.53333334l213.33333333-369.49333334a8.53333333 8.53333333 0 0 0-3.1232-11.65653333M665.6 304.21333333a25.6 25.6 0 1 0-51.21706667 0.03413334A25.6 25.6 0 0 0 665.6 304.21333333" fill="#A1A8BA" p-id="9768"></path><path d="M213.16266667 767.82933333l8.704-8.704c-8.192-8.53333333-18.09066667-17.06666667-30.03733334-25.6l-8.704 8.53333334c12.62933333 9.04533333 22.69866667 17.57866667 30.03733334 25.77066666z m17.57866666 31.57333334c18.09066667-9.89866667 27.30666667-23.89333333 27.30666667-42.15466667v-8.02133333h36.01066667v28.33066666c0 9.728 5.12 14.67733333 15.36 14.67733334h22.528v-11.60533334h-19.456c-4.26666667 0-6.31466667-2.048-6.31466667-5.80266666v-37.20533334H245.76v20.992c0 13.65333333-7.85066667 24.064-23.21066667 31.40266667l8.192 9.38666667z m-24.23466666 9.216l8.87466666-8.704c-7.68-8.53333333-17.06666667-16.896-28.33066666-25.42933334l-8.704 8.53333334c11.94666667 9.04533333 21.33333333 17.57866667 28.16 25.6z m123.05066666 79.872l6.144-11.09333334c-18.77333333-4.43733333-34.816-10.92266667-47.78666666-19.456 14.50666667-11.60533333 25.088-25.42933333 31.91466666-41.472v-11.264h-90.112v11.776h10.752c5.46133333 15.70133333 14.67733333 29.35466667 27.47733334 40.61866667-12.97066667 7.85066667-28.50133333 14.16533333-46.93333334 19.11466667l6.144 11.264c19.62666667-5.97333333 36.52266667-13.48266667 50.688-22.69866667 13.65333333 9.89866667 30.89066667 17.57866667 51.712 23.21066667z m-51.54133333-37.71733334a91.73333333 91.73333333 0 0 1-25.6-33.792h53.76c-5.97333333 12.97066667-15.36 24.23466667-28.16 33.792z m-84.65066667 34.47466667c9.55733333-18.77333333 18.09066667-38.74133333 25.94133334-59.904l-11.09333334-4.43733333a496.64 496.64 0 0 1-27.136 59.05066666l12.288 5.29066667z m207.70133334 1.87733333v-36.52266666h67.75466666v19.456c0 4.096-2.21866667 6.144-6.656 6.144-5.632 0-11.776-0.34133333-18.26133333-0.68266667l3.072 11.264h19.11466667c9.55733333-0.34133333 14.336-4.608 14.336-12.97066667v-92.16h-79.18933334c4.096-6.31466667 7.68-12.97066667 11.09333334-19.79733333h89.94133333v-11.94666667h-84.82133333c2.38933333-5.97333333 4.43733333-12.11733333 6.48533333-18.432l-12.45866667-1.536c-2.048 6.656-4.608 13.312-7.50933333 19.968h-50.85866667v11.94666667h45.22666667c-11.776 22.016-28.33066667 41.472-49.83466667 58.53866667l8.02133334 10.41066666c12.288-9.89866667 23.38133333-20.992 32.93866666-32.93866666v89.25866666h11.60533334z m67.75466666-76.11733333H401.06666667v-18.60266667h67.75466666v18.60266667z m0 28.84266667H401.06666667v-18.09066667h67.75466666v18.09066667zM539.648 887.46666667v-6.99733334h115.37066667V887.46666667h11.94666666v-148.992h-139.264V887.46666667h11.94666667z m115.37066667-17.92h-115.37066667v-120.14933334h115.37066667v120.14933334z m-103.08266667-50.176c19.456-4.26666667 35.66933333-9.89866667 48.81066667-16.896 11.94666667 6.656 26.112 12.11733333 42.66666666 16.55466666l6.48533334-9.216c-14.67733333-3.41333333-27.648-8.02133333-39.08266667-13.48266666 9.728-6.82666667 16.896-14.848 21.67466667-23.89333334v-8.53333333h-45.056c1.70666667-3.072 3.072-6.144 4.43733333-9.38666667l-10.92266667-1.36533333c-5.46133333 12.97066667-16.04266667 24.064-31.57333333 33.28l6.82666667 8.87466667c6.48533333-4.096 12.288-8.53333333 17.408-13.312 4.77866667 5.12 10.58133333 9.89866667 17.23733333 14.336-11.94666667 5.632-26.79466667 10.06933333-44.37333333 13.14133333l5.46133333 9.89866667z m48.81066667-28.33066667c-7.85066667-4.77866667-14.848-10.06933333-20.82133334-15.872a8.02133333 8.02133333 0 0 1 1.536-2.048h38.74133334c-4.608 6.82666667-11.09333333 12.8-19.456 17.92z m14.848 46.93333333l5.80266666-8.87466666c-11.09333333-6.144-23.38133333-11.60533333-36.69333333-16.04266667l-5.632 8.192c12.62933333 4.096 24.74666667 9.55733333 36.52266667 16.72533333z m12.62933333 27.136l4.096-9.89866666c-20.82133333-7.85066667-42.66666667-13.99466667-65.36533333-18.26133334l-4.77866667 9.216c22.86933333 4.43733333 44.88533333 10.752 66.048 18.944z m185.856 22.69866667v-71.50933333h-79.36c0.34133333-5.632 0.68266667-11.60533333 0.85333333-17.92v-10.24h100.52266667v-11.776h-38.4v-45.39733334h-12.11733333v45.39733334H735.57333333v-40.61866667h-12.45866666v62.63466667c-0.34133333 36.864-9.38666667 63.82933333-27.30666667 80.72533333l9.38666667 8.192c14.50666667-13.65333333 23.89333333-33.45066667 27.98933333-59.05066667h68.608v59.56266667h12.288z" fill="#A1A8BA" p-id="9769"></path></svg>