<?xml version="1.0" standalone="no"?><!DOCTYPE svg PUBLIC "-//W3C//DTD SVG 1.1//EN" "http://www.w3.org/Graphics/SVG/1.1/DTD/svg11.dtd"><svg t="1739585260317" class="icon" viewBox="0 0 1828 1024" version="1.1" xmlns="http://www.w3.org/2000/svg" p-id="6481" xmlns:xlink="http://www.w3.org/1999/xlink" width="357.03125" height="200"><path d="M358.546286 37.522286h422.765714c60.708571 0 98.450286 41.691429 83.894857 92.598857l-218.697143 764.708571C632.100571 945.737143 570.514286 987.428571 509.805714 987.428571H87.04c-60.708571 0-98.450286-41.691429-83.894857-92.598857L221.622857 130.194286C236.251429 79.213714 297.764571 37.522286 358.546286 37.522286z" fill="#FE0000" p-id="6482"></path><path d="M778.020571 37.522286h422.692572c60.708571 0 98.450286 41.691429 83.894857 92.598857l-218.550857 764.708571c-14.555429 50.907429-76.068571 92.598857-136.777143 92.598857h-422.765714c-60.708571 0-98.450286-41.691429-83.894857-92.598857L641.170286 130.194286C655.652571 79.213714 717.385143 37.522286 778.020571 37.522286z" fill="#0C3084" p-id="6483"></path><path d="M1293.750857 37.522286h443.172572c63.634286 0 103.277714 41.691429 87.990857 92.598857l-229.156572 764.635428C1580.617143 945.737143 1515.958857 987.428571 1452.251429 987.428571h-443.099429c-63.634286 0-103.277714-41.691429-87.990857-92.598857L1150.244571 130.194286c15.36-50.907429 79.872-92.598857 143.506286-92.598857z" fill="#026B6F" p-id="6484"></path><path d="M265.801143 256.731429h73.874286c-4.169143 28.233143-16.822857 60.562286-26.477715 94.061714-7.094857 24.576-27.794286 77.604571-11.337143 99.328 13.165714 17.481143 48.859429 12.726857 64.365715 0 20.918857-17.188571 25.6-56.466286 34.084571-92.452572 8.118857-34.596571 17.115429-70.217143 22.674286-100.937142h66.340571c-9.216 32.256-18.797714 66.267429-28.379428 100.937142-13.677714 49.371429-22.016 106.788571-68.315429 130.121143-51.931429 26.185143-164.059429 24.576-172.324571-29.110857-4.754286-30.939429 10.532571-68.388571 19.017143-101.010286 8.777143-34.011429 15.652571-67.291429 24.576-95.890285-0.219429-2.340571-0.292571-4.754286 1.901714-5.12z m925.988571 157.476571c-14.482286 24.064-17.993143 57.929143-24.576 89.088-22.454857-3.803429-44.397714 0.073143-68.315428 0a5962.605714 5962.605714 0 0 1 64.365714-246.564571c73.874286 5.339429 183.149714-19.602286 191.414857 41.106285 9.654857 71.460571-67.510857 128.146286-162.962286 116.370286h0.073143z m7.606857-39.350857c49.737143 7.021714 88.064-21.211429 83.309715-56.466286-3.437714-25.892571-33.426286-21.942857-64.365715-25.673143-5.046857 28.525714-14.628571 52.882286-19.017142 82.139429zM705.097143 344.064c21.723429-2.925714 33.865143 1.243429 35.986286 11.995429 5.851429 29.037714-69.046857 42.861714-71.972572 13.677714-1.901714-18.870857 18.870857-23.405714 35.986286-25.673143z m-147.748572 11.922286c1.462857 6.363429-3.145143 7.314286-1.828571 13.677714 26.185143-14.994286 78.555429-23.405714 83.382857 11.995429 4.534857 34.596571-26.477714 88.649143-24.649143 119.954285-20.626286 0.146286-42.715429-0.950857-60.635428 1.682286 3.949714-34.157714 20.48-65.901714 18.944-99.328-0.731429-2.340571-3.291429-2.706286-3.803429-5.12a38.765714 38.765714 0 0 0-20.845714 3.437714c-11.629714 29.988571-16.237714 66.267429-24.576 99.254857a564.662857 564.662857 0 0 0-60.635429 1.755429c6.948571-42.349714 22.966857-91.136 30.354286-138.825143 22.235429-2.048 40.96-7.314286 64.365714-8.484571z m448.877715 0c3.949714 3.803429-2.998857 7.387429-1.901715 13.677714 16.530286-5.851429 29.549714-14.043429 49.225143-13.677714 70.217143 1.755429 9.581714 107.373714 9.508572 145.554285-20.626286-1.316571-45.494857 1.974857-60.635429 0 6.802286-33.206857 19.017143-61.586286 20.845714-99.328-4.388571-5.632-17.188571-3.072-24.649142-1.682285-13.458286 29.476571-16.457143 68.388571-26.331429 100.937143-20.626286-1.316571-45.568 2.048-60.708571 0 10.532571-45.275429 23.917714-87.917714 30.354285-136.923429 22.601143-1.682286 41.325714-7.021714 64.292572-8.557714z m579.510857 71.899428c13.165714-19.382857 23.332571-41.691429 35.913143-61.586285 19.675429-3.949714 41.691429-5.851429 60.635428-10.24-31.744 60.708571-77.531429 128.146286-117.394285 191.707428-22.674286 36.205714-34.669714 84.48-109.860572 71.899429 4.388571-9.728 4.900571-22.893714 9.508572-32.548572h15.140571c24.356571-23.478857 38.765714-56.173714 58.660571-83.821714a6672.822857 6672.822857 0 0 0-18.944-136.996571c19.675429-3.364571 40.740571-5.412571 58.733715-10.24 9.508571 17.627429 4.973714 47.981714 7.606857 71.826285z m-757.540572-68.461714c36.717714-4.681143 66.56 0.877714 77.677715 22.235429 19.456 37.522286-9.508571 86.308571-26.477715 101.010285-22.747429 19.748571-103.716571 39.497143-128.731428 1.755429-21.796571-32.914286 7.826286-89.6 24.576-104.448 12.653714-11.117714 28.525714-17.408 53.028571-20.48z m9.508572 30.866286c-26.331429-2.194286-39.350857 59.684571-28.452572 80.457143 32.475429 15.798857 56.466286-78.262857 28.525715-80.457143h-0.073143z" fill="#FFFFFF" p-id="6485"></path><path d="M1436.598857 415.817143c14.994286-11.190857 45.787429-8.192 67.657143-13.385143-7.168 43.300571-25.161143 91.282286-31.890286 140.507429-23.186286-1.097143-41.910857 1.682286-63.780571 1.682285-3.510857-3.145143 1.097143-2.998857 0-8.338285-32.914286 23.186286-86.528 4.096-88.137143-33.426286-2.413714-55.222857 42.934857-103.497143 99.401143-100.425143 6.070857 4.022857 13.092571 7.241143 16.822857 13.385143zM1386.057143 512.731429c39.497143 7.68 49.298286-47.981714 37.522286-75.337143-37.668571-5.997714-47.177143 50.029714-37.522286 75.337143z m-635.830857-83.602286c-9.289143 37.376-19.748571 73.801143-28.086857 112.128-21.504-1.243429-47.762286 1.755429-63.780572 0 12.214857-33.499429 20.992-68.315429 26.185143-103.789714 22.966857-1.828571 42.715429-6.582857 65.682286-8.338286z m155.574857 172.324571c-0.950857 6.875429-6.582857 9.801143-7.460572 16.749715h56.246858c-0.512 12.946286-5.558857 21.796571-7.533715 33.426285h-78.628571c-15.945143 11.995429-37.302857 19.163429-69.412572 16.822857 0.731429-12.288 4.096-22.089143 7.533715-31.890285h16.822857c12.946286-7.387429 16.237714-23.405714 24.429714-35.108572h58.002286z m122.002286 0c0.365714 8.118857-2.486857 13.385143-3.657143 20.114286 23.186286-21.065143 85.430857-21.942857 140.580571-20.114286-17.700571 31.817143-9.289143 93.257143-39.350857 117.174857-26.185143 20.699429-78.262857 4.827429-125.659429 10.020572-9.508571 21.577143-13.677714 48.054857-20.626285 71.972571 7.241143 11.190857 27.794286 0.585143 43.154285 3.364572-1.462857-22.820571-1.170286-46.957714-3.803428-68.608h50.688v16.749714h16.822857c5.412571-3.657143 6.729143-10.752 7.533714-18.432h39.350857c2.194286 34.816-20.260571 47.762286-61.878857 43.52-3.949714 8.045714-2.925714 26.038857 3.730286 30.134857 14.189714 0.877714 22.966857-2.925714 37.522286-1.682286-3.437714 10.825143-5.997714 22.528-9.362286 33.426286-26.843429-1.097143-60.416 3.657143-76.873143-6.656a57.270857 57.270857 0 0 1-3.803428-26.770286c-4.900571 9.508571-6.363429 22.162286-9.362286 33.426286-31.670857-2.413714-76.580571 6.875429-91.867429-10.020571 14.262857-80.457143 38.838857-151.625143 58.148572-227.620572h48.713143z m-5.632 35.108572c-3.218286 10.459429-5.412571 21.942857-9.362286 31.817143 17.993143-14.043429 56.100571-17.334857 86.308571-15.067429-0.438857-7.094857 2.925714-10.752 3.730286-16.749714h-80.676571z m-13.019429 48.566857c-1.024 4.608-2.779429 8.777143-3.803429 13.385143h80.676572c-0.585143-6.144 2.194286-9.216 3.803428-13.385143h-80.676571z m264.338286-83.675429c1.462857 6.290286-2.194286 8.045714-1.828572 13.385143 23.186286-13.750857 70.509714-11.483429 114.395429-13.385143a261.12 261.12 0 0 1-9.362286 33.499429h-16.896c-15.872 51.126857-26.697143 106.715429-43.154286 157.257143 1.462857 3.803429 10.532571 0.731429 14.994286 1.682285-0.146286 5.997714-2.925714 9.728-3.657143 15.067429 45.933714 1.462857 45.714286-38.326857 67.510857-58.514286-13.750857-3.876571-35.620571-0.585143-52.516571-1.682285 3.437714-9.216 5.997714-18.724571 7.533714-28.525715h59.977143c4.681143-5.266286 4.754286-14.628571 7.533714-21.650285-16.237714-3.949714-40.594286-0.585143-59.977142-1.682286 2.486857-10.532571 6.070857-20.260571 7.460571-31.817143H1536c-2.56 10.532571-6.582857 19.821714-7.533714 31.817143h-56.246857c-5.12 4.827429-3.364571 15.872-7.460572 21.723428 14.994286 3.876571 38.034286 0.512 56.246857 1.682286a305.737143 305.737143 0 0 1-7.533714 28.452572h-59.977143c-4.388571 2.267429-6.070857 6.875429-9.362286 10.020571 5.12 4.900571 21.504-1.024 24.356572 1.682286 1.462857 14.848 5.851429 27.062857 9.362286 40.155428 4.608 3.145143 12.288 3.584 20.626285 3.364572-0.731429 12.726857-6.802286 20.699429-7.460571 33.426285-49.517714 7.972571-65.170286-14.336-67.584-48.493714-20.918857 28.086857-37.302857 60.416-101.156572 50.249143-7.533714 0.950857 0.950857-4.973714-1.901714-10.093714-13.385143-3.584-12.653714 5.485714-16.822857 10.093714h-50.761143c-1.316571-5.12 3.291429-4.900571 1.901714-10.093714h-105.033142a152.868571 152.868571 0 0 0 7.533714-30.061715c2.413714-2.340571 8.045714-1.682286 13.092571-1.682285 15.213714-66.706286 33.499429-130.779429 50.614857-195.803429h52.516572z m-7.460572 33.499429c-2.852571 13.092571-7.168 24.868571-9.362285 38.473143 14.043429-2.56 22.454857-10.093714 41.252571-8.338286 5.046857-8.411429 5.046857-21.211429 9.362286-30.134857h-41.252572z m-24.356571 102.034286c10.898286-6.436571 25.746286-9.362286 41.252571-11.702858a561.737143 561.737143 0 0 0 7.533715-28.452571h-41.325715c-0.512 14.043429-10.24 28.745143-7.460571 40.228571z m-16.896 58.514285h39.350857c3.657143-11.556571 6.875429-23.259429 9.362286-35.108571h-41.252572c-0.658286 13.385143-6.436571 22.162286-7.460571 35.108571z" fill="#FFFFFF" p-id="6486"></path><path d="M1388.690286 621.714286h54.272c0.438857 6.802286 2.925714 11.922286 1.828571 20.041143 3.437714 2.706286 11.922286 1.097143 18.066286 1.536-3.145143 9.654857-5.266286 20.187429-9.069714 29.257142-23.917714-0.585143-53.686857 3.657143-63.268572-9.216-2.925714-11.922286-1.536-27.428571-1.828571-41.618285z m-424.96 66.267428c-1.462857 10.020571-5.778286 17.700571-7.241143 27.794286h-52.516572c-6.802286 3.949714-5.705143 14.628571-8.996571 21.504 14.482286 3.584 36.717714 0.512 54.272 1.536-0.658286 11.337143-4.754286 19.675429-7.314286 29.257143h-54.198857c-6.290286 11.117714-7.314286 26.770286-12.653714 38.546286 9.508571 9.508571 32.841143 2.121143 47.030857 1.536-2.486857 11.264-5.851429 21.723429-8.996571 32.329142-35.986286-3.730286-88.576 10.605714-94.061715-15.36-3.510857-16.749714 15.067429-33.645714 14.482286-53.979428-6.144-3.510857-19.894857-0.512-28.964571-1.462857 0.512-11.922286 5.412571-20.114286 7.241142-30.866286h28.964572c6.582857-4.681143 5.485714-15.872 8.996571-23.113143h-30.72c2.048-9.508571 4.534857-18.651429 7.168-27.794286l137.508572 0.073143z" fill="#FFFFFF" p-id="6487"></path></svg>