<?xml version="1.0" standalone="no"?><!DOCTYPE svg PUBLIC "-//W3C//DTD SVG 1.1//EN" "http://www.w3.org/Graphics/SVG/1.1/DTD/svg11.dtd"><svg t="1739673925850" class="icon" viewBox="0 0 1024 1024" version="1.1" xmlns="http://www.w3.org/2000/svg" p-id="8371" xmlns:xlink="http://www.w3.org/1999/xlink" width="200" height="200"><path d="M307.2 296.533333c0 94.72 76.8 171.093333 171.093333 171.093334s171.093333-76.8 171.093334-171.093334-76.8-171.093333-171.093334-171.093333S307.2 201.813333 307.2 296.533333zM598.186667 519.68c-38.826667-12.8-79.36-19.2-120.32-19.2-215.893333 0-390.826667 174.933333-390.826667 390.826667h498.773333c-39.68-50.773333-61.44-113.493333-61.44-177.92-0.426667-71.68 26.026667-140.373333 73.813334-193.706667z" fill="#4C4C4C" opacity=".99" p-id="8372"></path><path d="M938.666667 689.493333c-1.706667-8.106667-8.106667-14.933333-16.213334-17.066666l-5.546666-1.28c-28.586667-8.533333-45.653333-38.4-38.826667-67.413334l1.706667-5.546666c2.133333-8.106667-0.426667-17.066667-6.826667-22.613334 0 0-5.546667-4.693333-20.48-13.226666-6.826667-4.266667-14.08-7.68-21.333333-11.093334-8.106667-2.56-16.64-0.426667-23.04 5.546667l-3.84 4.266667c-10.24 9.386667-23.893333 15.36-38.826667 15.36s-29.013333-5.973333-38.826667-15.36l-3.84-4.266667c-5.973333-5.973333-14.933333-8.106667-23.04-5.546667 0 0-6.4 2.56-21.76 11.093334-14.933333 8.96-20.48 13.226667-20.48 13.226666-5.973333 5.973333-8.533333 14.506667-6.826666 22.613334l1.706666 5.546666c6.826667 29.44-10.24 58.88-38.826666 67.413334l-5.546667 1.28c-8.106667 2.133333-14.506667 8.96-16.213333 17.066666 0 0-1.28 6.826667-1.28 24.32s1.28 24.32 1.28 24.32c1.706667 8.106667 8.106667 14.933333 16.213333 17.066667l5.546667 1.28c29.013333 8.533333 46.08 38.4 38.826666 67.413333l-1.706666 5.12c-2.133333 8.106667 0.426667 17.066667 6.826666 22.613334 0 0 5.546667 4.693333 20.48 13.226666s21.333333 11.093333 21.333334 11.093334c8.106667 2.56 17.066667 0.426667 23.04-5.546667l3.84-4.266667c21.76-20.906667 56.32-20.906667 78.08 0l3.84 4.266667c5.12 5.546667 15.786667 8.106667 23.04 5.546667 0 0 6.4-2.56 21.76-11.093334 14.933333-8.533333 20.48-13.226667 20.48-13.226666 5.973333-5.973333 8.533333-14.506667 6.826666-22.613334l-1.706666-5.546666c-6.826667-29.013333 10.24-58.88 38.826666-67.413334l5.546667-1.28c8.106667-2.133333 14.506667-8.96 16.213333-17.066666 0 0 1.28-6.826667 1.28-24.32-0.426667-16.64-1.706667-23.893333-1.706666-23.893334z m-173.226667 103.253334c-43.52 0-78.933333-35.413333-78.933333-78.933334s35.413333-78.933333 78.933333-78.933333 78.933333 35.413333 78.933333 78.933333-35.413333 78.933333-78.933333 78.933334z" fill="#4C4C4C" opacity=".99" p-id="8373"></path></svg>