<?xml version="1.0" standalone="no"?><!DOCTYPE svg PUBLIC "-//W3C//DTD SVG 1.1//EN" "http://www.w3.org/Graphics/SVG/1.1/DTD/svg11.dtd"><svg t="1739585091506" class="icon" viewBox="0 0 2162 1024" version="1.1" xmlns="http://www.w3.org/2000/svg" p-id="2410" xmlns:xlink="http://www.w3.org/1999/xlink" width="422.265625" height="200"><path d="M971.392 765.696H836.8l84.096-517.248h134.72zM723.456 248.448L595.072 604.224l-15.168-76.608-45.312-232.576s-5.44-46.592-63.872-46.592H258.496L256 257.216s64.896 13.504 140.864 59.136l116.992 449.344h140.288l214.272-517.248h-144.96z m1059.2 517.248h123.648l-107.776-517.248h-108.224c-49.984 0-62.208 38.528-62.208 38.528l-200.832 478.72h140.352l28.096-76.8h171.2l15.744 76.8z m-148.16-182.912l70.72-193.6 39.808 193.6h-110.528z m-196.672-209.92l19.2-111.104s-59.328-22.528-121.088-22.528c-66.816 0-225.536 29.184-225.536 171.2 0 133.632 186.304 135.296 186.304 205.44s-167.104 57.664-222.208 13.376l-20.032 116.096s60.096 29.248 152 29.248c91.84 0 230.528-47.616 230.528-177.088 0-134.464-187.968-147.008-187.968-205.504 0-58.432 131.136-50.88 188.8-19.136z" fill="#0461A5" p-id="2411"></path><path d="M579.904 527.616L534.592 295.04s-5.44-46.592-63.872-46.592H258.496L256 257.216s102.016 21.12 199.872 100.352c93.568 75.712 124.032 170.048 124.032 170.048z" fill="#EF9F38" p-id="2412"></path></svg>