<svg xmlns="http://www.w3.org/2000/svg" fill="none" viewBox="0 0 1024 1024" height="1024" width="1024">
<rect fill="#EBEADF" height="1024" width="1024"></rect>
<path fill="#65635F" d="M228.566 72.0607C417.157 72.1101 605.773 71.8135 794.364 72.209L794.809 74.5571C606.02 74.4088 417.231 74.5818 228.443 74.483L228.566 72.0607Z"></path>
<path fill="#807F79" d="M211.635 77.0783C211.166 72.5056 218.976 72.8023 221.077 75.62C218.16 77.1277 214.848 77.4491 211.635 77.0783Z"></path>
<path fill="#0F0E0C" d="M221.077 75.6198C222.931 75.3232 226.614 74.7547 228.443 74.4828C417.231 74.5817 606.02 74.4087 794.809 74.557C795.971 74.8289 798.319 75.3479 799.505 75.5951C802.397 77.177 805.709 77.4489 808.972 77.004C867.675 88.7446 917.084 139.563 927.96 198.587C927.564 202.542 927.638 206.67 929.418 210.328L930.16 212.503C930.58 410.511 930.926 608.569 929.986 806.552L929.517 808.925C928.924 812.485 927.713 819.603 927.095 823.162C925.537 826.153 925.117 829.515 925.439 832.876C912.808 888.415 865.08 936.119 808.972 946.995C805.709 946.525 802.397 946.822 799.505 948.404C798.319 948.651 795.946 949.195 794.76 949.442C605.921 949.491 417.083 949.541 228.245 949.417C227.058 949.17 224.71 948.651 223.549 948.379C220.632 946.822 217.295 946.5 214.082 947.019C156.862 937.652 109.949 888.934 97.6153 832.851C97.8871 829.49 97.4422 826.054 95.7367 823.113C95.539 819.059 95.1683 814.981 93.5864 811.224L92.8943 809.049C92.5235 763.767 92.0539 718.461 93.0178 673.204C97.5658 521.466 94.0312 369.333 94.7975 217.471C95.0694 212.725 95.0694 208.004 94.9705 203.283L95.885 200.762C97.5164 197.771 98.0601 194.361 98.2578 190.999C99.8892 188.058 100.359 184.696 100.211 181.359C115.436 130.269 158.617 87.1133 211.635 77.0781C214.848 77.4489 218.16 77.1276 221.077 75.6198ZM245.819 81.9474V84.3202C173.793 81.0081 108.441 144.358 104.882 215.321L102.509 215.469C102.386 413.996 102.46 612.524 102.485 811.051L104.857 811.125C110.32 872.72 160.545 931.324 223.524 937.232L223.697 939.505C264.01 939.876 304.349 939.456 344.662 939.604L344.786 941.928C492.198 942.274 639.66 942.002 787.097 942.051L787.147 939.654C848.618 934.809 904.231 886.957 915.651 826.079C922.571 821.58 918.987 806.997 920.619 798.742L922.942 798.618C923.214 605.85 923.016 413.082 923.016 220.338L920.644 220.363C919.482 216.68 923.239 208.252 918.221 207.881C916.417 190.332 909.941 173.079 901.34 157.755C893.826 145.371 884.705 133.186 873.632 123.793C861.125 111.064 843.922 100.386 826.916 94.1082C818.068 87.3604 804.276 88.4727 793.746 87.0391C796.885 82.2193 787.073 85.3831 784.675 84.3449L784.551 82.0463C604.982 81.7744 425.388 81.9721 245.819 81.9474Z"></path>
<path fill="#6D6C67" d="M799.505 75.5951C801.557 72.8515 809.318 72.456 808.972 77.004C805.709 77.4489 802.397 77.177 799.505 75.5951Z"></path>
<path fill="#372B1D" d="M245.819 81.9474C425.388 81.9721 604.982 81.7744 784.552 82.0463L784.675 84.345C769.672 84.4438 754.743 84.4438 739.814 84.4933C654.391 84.4191 568.969 84.1225 483.572 84.6416C449.388 84.7899 415.205 83.381 381.07 85.0865C373.161 84.8146 365.499 84.4438 357.663 84.7652C320.365 84.0484 283.092 84.6416 245.819 84.3202V81.9474Z"></path>
<path fill="#AB8459" d="M104.882 215.321C108.441 144.358 173.793 81.0082 245.819 84.3203C283.092 84.6416 320.365 84.0484 357.663 84.7652C330.302 96.4811 300.147 100.955 270.61 101.721C254.371 102.24 238.898 89.4615 222.609 95.7396C197.25 106.195 172.977 119.394 150.09 134.496C135.531 145.347 144.182 166.406 144.825 181.458C162.695 160.572 182.246 140.848 204.689 124.856C220.632 113.635 240.109 125.252 257.386 125.301C309.514 121.791 367.427 123.571 409.619 87.5335C400.053 86.8415 390.537 86.0258 381.07 85.0865C415.205 83.3811 449.388 84.7899 483.572 84.6416C449.462 99.6943 410.632 101.474 378.45 121C473.759 120.16 570.181 127.773 664.525 110.471C678.194 111.732 699.574 108.568 708.769 120.58C676.958 114.45 646.581 121.445 615.907 128.144C491.555 131.085 366.957 125.969 242.754 130.69C196.904 135.757 156.887 173.944 151.276 219.77C150.534 225.677 149.892 231.584 149.373 237.517L146.95 237.69C146.679 233.685 146.11 225.702 145.814 221.698C128.512 288.187 124.853 357.716 105.549 423.685C105.154 408.806 104.833 393.926 105.302 379.046C115.263 316.092 123.42 252.841 136.915 190.505C115.115 188.132 115.931 215.518 105.278 228.322C105.154 223.996 105.006 219.671 104.882 215.321Z"></path>
<path fill="#C99A65" d="M357.663 84.7652C365.499 84.4438 373.161 84.8146 381.07 85.0865C390.537 86.0257 400.053 86.8414 409.619 87.5335C367.427 123.571 309.515 121.791 257.386 125.301C240.109 125.252 220.632 113.635 204.69 124.856C182.246 140.848 162.695 160.572 144.825 181.458C144.182 166.406 135.531 145.347 150.09 134.496C172.978 119.394 197.25 106.195 222.609 95.7395C238.898 89.4614 254.371 102.24 270.61 101.721C300.147 100.955 330.302 96.481 357.663 84.7652Z"></path>
<path fill="#C69964" d="M483.572 84.6415C568.97 84.1225 654.392 84.4191 739.814 84.4932C741.766 85.9763 743.694 87.484 745.622 89.0412C685.164 89.3625 624.509 104.539 564.323 92.2791C560.145 89.9557 553.571 97.7663 560.541 98.2606C618.601 113.017 680.023 106.961 738.603 97.7663C756.251 90.3512 773.948 83.8259 793.746 87.0391C811.963 101.276 829.932 116.354 848.841 129.552C843.971 114.277 830.328 104.86 819.081 94.4295C821.034 94.3553 824.964 94.1823 826.917 94.1082C843.922 100.386 861.125 111.064 873.632 123.793C874.274 141.268 876.993 158.743 875.906 176.243C846.319 152.391 813.99 108.345 769.277 128.069C718.162 129.528 666.997 129.231 615.907 128.144C646.581 121.445 676.958 114.45 708.769 120.58C699.574 108.568 678.194 111.731 664.526 110.471C570.181 127.773 473.759 120.16 378.45 121C410.632 101.474 449.463 99.6942 483.572 84.6415Z"></path>
<path fill="#AE8558" d="M739.813 84.4934C754.743 84.4439 769.672 84.4439 784.675 84.3451C787.072 85.3832 796.885 82.2194 793.746 87.0392C773.948 83.826 756.25 90.3513 738.602 97.7664C680.023 106.961 618.601 113.017 560.541 98.2608C553.571 97.7664 560.145 89.9558 564.322 92.2792C624.508 104.539 685.164 89.3626 745.622 89.0413C743.694 87.4841 741.766 85.9764 739.813 84.4934Z"></path>
<path fill="#A88253" d="M793.746 87.0391C804.276 88.4727 818.068 87.3604 826.916 94.1082C824.964 94.1824 821.034 94.3554 819.081 94.4295C830.327 104.86 843.971 114.277 848.84 129.552C829.932 116.354 811.963 101.276 793.746 87.0391Z"></path>
<path fill="#AD865B" d="M769.276 128.069C813.989 108.345 846.319 152.391 875.906 176.243C876.993 158.743 874.274 141.268 873.632 123.793C884.705 133.186 893.825 145.371 901.339 157.755C899.98 157.483 897.286 156.964 895.951 156.692C892.837 180.939 886.583 205.656 891.008 230.176C895.803 258.773 908.186 285.196 917.751 312.36C918.345 382.012 918.345 451.714 917.826 521.392C915.305 538.545 907.939 554.29 902.328 570.529C886.88 614.649 891.7 663.663 881.64 707.783C873.73 652.961 877.685 595.073 900.672 544.057C910.485 477.272 909.62 408.682 900.474 341.575C899.09 317.402 897.533 292.66 887.992 270.094C877.685 247.675 878.921 222.044 870.27 199.106C867.428 194.583 865.45 195.3 865.549 200.861C852.301 164.181 818.735 137.066 780.424 130.615C776.716 129.602 772.984 128.786 769.276 128.069Z"></path>
<path fill="#634E37" d="M242.754 130.69C366.957 125.969 491.556 131.085 615.907 128.144C666.997 129.231 718.162 129.528 769.276 128.07C772.984 128.786 776.716 129.602 780.424 130.615C601.225 131.925 421.977 131.728 242.754 130.69Z"></path>
<path fill="#0A0B09" d="M151.276 219.77C156.887 173.944 196.904 135.756 242.754 130.69C421.977 131.728 601.225 131.925 780.424 130.615C818.735 137.067 852.301 164.181 865.549 200.861C866.884 206.274 868.293 211.663 869.603 217.076C868.836 332.826 866.711 449.07 870.443 564.597C871.185 585.582 871.827 606.641 870.666 627.65C866.612 686.403 868.96 745.501 869.479 804.377C869.108 807.245 868.762 810.112 868.466 812.979C859.073 840.909 841.277 866.837 814.064 879.616C804.671 883.126 795.254 886.759 785.392 888.662C602.065 886.883 418.64 887.377 235.314 888.415C201.254 881.668 170.234 858.087 157.183 825.461C154.712 818.565 152.388 811.57 151.029 804.377C152.611 609.533 152.166 414.614 151.276 219.77ZM248.29 138.797V141.17C245.374 142.257 237.835 138.747 238.354 143.641C203.281 147.398 172.829 177.256 164.326 210.872C159.779 210.451 160.05 218.163 162.794 220.264L161.978 222.365C155.601 225.85 161.286 238.678 159.235 245.031L156.961 245.179C156.714 391.776 156.812 538.397 156.911 685.019H159.309C160.619 721.155 156.17 765.077 161.855 795.627C163.783 836.658 200.166 873.214 240.826 877.812C280.274 882.014 338.409 881.939 376.275 877.762C382.578 871.459 377.931 860.782 379.192 853.02C382.504 846.273 383.146 837.029 381.144 825.288C381.243 824.2 381.416 822.05 381.515 820.962C382.183 817.255 383.542 809.864 384.209 806.182C391.896 802.721 383.863 784.505 386.508 776.867C363.225 782.083 377.165 773.654 381.194 768.735C404.354 769.749 427.612 768.958 450.822 768.908C450.945 767.796 451.143 765.596 451.242 764.509C452.404 764.509 454.702 764.484 455.864 764.484C459.794 792.983 406.875 765.942 397.186 778.968C391.254 812.114 389.153 846.396 389.252 880.135C418.072 879.418 448.622 882.533 476.429 878.578C481.199 860.51 479.296 839.995 483.572 821.259C502.975 820.147 522.476 821.086 541.954 821.135C543.708 840.884 546.922 860.51 550.234 880.061C579.771 880.58 609.308 880.382 638.869 880.135C636.323 846.866 635.508 808.159 628.216 778.993C627.005 775.137 629.254 772.072 631.306 769.057C636.249 769.106 641.192 769.205 646.161 768.884C648.608 768.068 651.055 767.203 653.502 766.239C653.452 769.699 653.551 773.184 653.749 776.669C647.1 779.24 637.485 777.979 642.181 788.039C642.824 793.428 636.051 813.226 644.702 810.309C644.752 815.871 640.525 830.306 646.803 830.157C646.704 839.253 647.891 848.349 649.67 857.247C649.918 863.278 645.295 875.834 651.45 877.787L651.153 880.135C694.112 878.998 743.076 883.422 782.228 877.812C820.317 872.942 852.227 841.082 859.024 803.661V801.263C863.745 801.609 860.21 794.169 861.347 791.302L863.695 791.253C863.745 731.932 863.918 672.586 863.596 613.265C863.943 486.417 863.671 359.545 863.72 232.697H861.347C860.21 229.805 863.745 222.217 858.851 222.736C856.206 184.326 823.654 151.452 786.702 143.79C787.097 139.266 779.361 139.538 777.285 142.257L775.208 141.466L774.59 139.019C599.173 138.451 423.707 138.896 248.29 138.797ZM490.443 840.711C484.214 843.406 490.542 857.494 489.01 863.748C489.479 867.925 483.819 876.897 488.169 877.886C496.697 880.456 551.692 889.008 537.801 867.974C535.329 859.669 537.109 845.605 532.685 840.736C532.24 836.46 534.662 828.625 527.593 830.775C516.89 835.249 485.846 820.369 490.443 840.711Z"></path>
<path fill="#343C44" d="M248.29 138.797C423.707 138.895 599.173 138.451 774.59 139.019L775.208 141.466C712.625 141.441 650.016 140.502 587.482 141.787C474.426 140.502 361.346 141.689 248.29 141.169V138.797Z"></path>
<path fill="#99B0C8" d="M238.354 143.641C237.835 138.747 245.374 142.257 248.29 141.17C361.346 141.689 474.426 140.502 587.482 141.787C471.238 146.212 354.697 142.554 238.354 143.641Z"></path>
<path fill="#A9C1DD" d="M587.482 141.787C650.016 140.502 712.625 141.441 775.208 141.466L777.285 142.257C780.127 143.938 783.439 144.185 786.702 143.789C823.654 151.452 856.206 184.325 858.851 222.736C858.727 242.534 858.925 262.332 858.752 282.131C825.977 284.677 791.447 277.657 759.464 284.182C742.458 293.402 748.118 331.244 772.292 324.026C801.087 324.545 829.932 324.026 858.777 324.15C858.851 380.999 858.777 437.848 858.777 494.697C848.964 494.821 839.176 494.747 829.438 494.524C829.289 487.851 828.968 474.528 828.82 467.855C817.919 465.581 792.238 474.874 799.654 452.678C795.822 446.351 807.217 423.389 787.097 432.929C771.081 435.846 785.936 412.118 776.592 405.815C768.139 408.534 753.704 399.908 748.02 409.003C747.649 424.971 747.402 440.938 747.278 456.905C740.135 464.666 726.812 457.053 717.988 460.464C720.015 470.722 710.351 492.25 727.48 490.792C724.786 502.805 737.737 533.132 713.045 524.383C706.297 516.498 712.625 496.378 710.45 484.638C710.623 482.957 710.944 479.62 711.092 477.939C714.998 439.974 712.106 401.712 712.946 363.623C713.094 361.917 713.366 358.531 713.49 356.826C716.357 323.655 717.024 289.966 713.515 256.845C712.946 254.25 712.254 251.729 711.389 249.232C704.468 221.945 680.592 202.319 654.144 195.226C638.35 191.914 622.21 193.248 606.267 193.471C593.093 179.456 577.002 167.073 557.847 162.995C549.196 160.671 540.569 160.671 531.968 162.945C527.988 163.835 524.256 165.491 520.425 166.826C511.873 162.624 519.016 145.075 504.705 152.539C493.483 155.308 482.534 158.694 471.436 161.808C451.292 162.204 430.554 158.298 410.681 162.574C381.614 165.219 371.258 197.03 344.736 203.209C327.879 214.208 318.24 233.24 311.64 251.704C310.8 254.201 310.132 256.746 309.638 259.342C304.868 317.674 308.995 376.525 307.562 435.08C276.418 426.849 283.042 458.685 282.276 478.038C281.535 457.523 253.53 473.935 241.641 470.524C249.922 499.295 218.531 488.172 201.773 489.63C196.731 483.501 199.968 474.825 198.312 467.607C187.585 467.682 176.512 466.1 166.156 469.437C170.679 457.004 177.179 436.513 162.053 429.617C161.558 398.573 161.756 367.528 161.805 336.508C200.29 335.989 238.848 337.546 277.283 335.915C291.545 328.92 290.136 305.488 277.11 297.554C264.381 297.208 251.652 296.862 238.947 296.541C231.507 288.359 243.248 274.567 235.19 265.595C217.097 246.736 184.619 262.555 161.805 257.414C161.781 245.723 161.632 234.056 161.978 222.365L162.794 220.264C164.475 217.422 164.697 214.085 164.327 210.872C172.829 177.256 203.281 147.398 238.354 143.641C354.697 142.554 471.238 146.212 587.482 141.787Z"></path>
<path fill="#626F82" d="M777.285 142.257C779.361 139.538 787.097 139.266 786.702 143.79C783.439 144.185 780.127 143.938 777.285 142.257Z"></path>
<path fill="#556271" d="M504.705 152.539C519.016 145.075 511.873 162.624 520.425 166.826C506.757 175.205 519.288 149.128 504.705 152.539Z"></path>
<path fill="#0F0E0B" d="M471.436 161.808C482.534 158.694 493.483 155.308 504.705 152.539C519.288 149.128 506.756 175.205 520.425 166.826C524.256 165.491 527.988 163.835 531.968 162.945C540.471 162.945 549.245 163.118 557.847 162.995C577.002 167.073 593.093 179.456 606.267 193.471C621.518 197.599 638.202 195.152 654.144 195.226C680.591 202.32 704.468 221.945 711.389 249.233C709.758 287.396 710.722 325.583 710.499 363.771C710.351 365.477 710.079 368.888 709.955 370.593C705.951 408.633 708.892 446.944 708.027 485.107C707.953 486.22 707.78 488.419 707.706 489.532C704.369 491.954 704.517 496.329 705.951 499.789C695.867 516.399 682.272 530.092 664.13 537.557C669.296 548.68 676.711 558.566 683.236 568.898C685.164 572.161 687.142 575.448 689.242 578.637C700.983 598.732 712.699 618.851 724.662 638.847C727.826 644.186 730.99 649.525 734.326 654.765C746.166 678.321 760.477 700.516 773.577 723.355C779.732 748.344 748.539 760.208 731.113 769.971C718.631 775.632 705.012 780.995 691.294 781.069C676.859 765.151 668.381 745.131 658.025 726.519C647.125 721.353 656.814 757.39 653.502 766.239C651.055 767.203 648.608 768.068 646.161 768.884C646.161 747.33 647.347 725.629 644.282 704.224C643.911 701.307 643.565 698.391 643.244 695.474C644.06 644.26 643.887 593.047 643.639 541.858L641.291 541.685C632.962 541.388 624.855 541.339 616.624 541.685C619.985 548.062 626.758 553.302 626.56 561.013C621.27 564.103 615.165 565.289 609.481 567.341C608.813 581.43 629.13 588.4 628.562 602.563C623.94 604.763 619.071 606.295 614.523 608.544C617.365 615.712 624.039 621.891 623.816 629.949C618.107 632.223 612.026 633.434 606.391 635.906C608.69 642.703 619.59 652.541 608.22 656.668C595.491 657.929 587.408 664.578 588.199 678.815C562.37 675.107 578.164 709.019 575.322 723.849C574.877 738.853 573.937 753.881 574.728 768.908C593.563 769.428 612.422 768.908 631.306 769.057C629.254 772.072 627.005 775.137 628.216 778.993C621.913 778.869 615.635 778.845 609.406 778.869C595.416 778.771 581.451 779.24 567.511 778.672C564.174 765.868 565.558 752.447 564.224 739.421C546.576 731.512 547.515 747.874 546.724 758.873C523.243 759.096 499.687 760.159 476.256 758.799C483.918 745.823 466.814 733.662 458.929 742.659C458.706 751.681 458.237 769.724 458.014 778.746C443.184 779.191 428.403 778.795 413.623 778.869C409.52 778.894 401.313 778.944 397.186 778.968C406.875 765.942 459.794 792.983 455.864 764.484C454.702 764.484 452.404 764.509 451.242 764.509L449.067 764.534C447.633 736.603 449.536 708.574 448.128 680.669C444.766 675.799 435.769 683.758 435.25 676.318C436.189 661.439 419.307 661.266 411.843 652.343C411.818 646.386 417.182 641.739 419.11 636.203C414.043 634.67 403.958 631.556 398.891 629.999C399.015 620.656 407.542 614.551 411.448 606.69C404.774 604.664 397.631 603.922 391.427 600.585C395.777 589.858 407.196 583.11 412.881 572.779C419.505 561.681 397.952 565.561 393.8 560.717C395.332 553.524 401.116 548.259 404.378 541.858C396.642 541.635 389.4 541.264 381.812 541.734L379.439 541.932C380.131 616.874 377.14 692.014 381.021 766.832L381.194 768.735C377.165 773.654 363.225 782.083 386.508 776.867C383.863 784.505 391.896 802.721 384.209 806.182C384.012 802.672 383.863 799.162 383.74 795.677C386.607 783.714 385.396 775.211 371.01 777.164C371.777 759.615 372.246 742.066 371.826 724.541C368.341 723.874 366.858 725.308 367.352 728.817C358.479 746.119 348.172 762.729 337.198 778.746C332.798 778.968 324.048 779.413 319.673 779.611C291.916 771.133 259.734 758.552 248.29 729.287C257.757 704.891 272.884 682.943 286.206 660.425C289.79 655.012 293.127 649.451 295.969 643.618C305.683 627.626 315.545 611.733 325.778 596.087C329.313 590.797 332.575 585.335 335.64 579.749C343.698 566.476 352.275 553.499 359.566 539.806C334.701 529.796 310.553 508.91 312.011 479.719C312.703 403.739 313.346 327.684 311.64 251.704C318.24 233.241 327.879 214.208 344.736 203.209C371.258 197.03 381.614 165.219 410.681 162.575C430.776 162.278 451.613 166.356 471.436 161.808ZM384.827 186.278C372.024 195.25 375.188 221.574 352.942 210.971C337.247 225.924 319.599 246.192 320.785 268.981C320.884 287.124 313.716 309.419 328.028 323.557C320.439 320.22 318.66 323.903 322.689 334.605C348.345 319.553 351.731 268.289 388.609 278.053C474.081 276.545 559.824 276.57 645.32 278.127C673.498 287.989 680.493 323.878 702.565 342.07C699.03 314.041 708.299 281.612 700.785 257.439C696.509 240.112 685.881 220.487 669.568 213.714C651.969 199.205 624.904 204.89 604.166 208.746C590.226 190.431 570.699 174.068 547.095 171.226C536.318 171.769 520.474 175.551 513.603 180C512.244 180.915 509.5 182.768 508.116 183.683C495.856 189.244 498.081 175.823 500.528 168.383C462.538 178.74 418.393 162.13 384.827 186.278ZM386.73 287.124L386.706 289.497C377.363 286.135 372.32 287.544 371.579 293.773C359.591 312.063 345.75 329.044 332.279 346.198C327.83 348.471 325.012 352.748 322.664 356.949L320.266 356.134C321.206 397.436 316.806 444.893 322.392 482.388C324.196 505.771 343.995 525.594 366.883 529.252L367.056 531.6C460.906 532.02 554.782 531.699 648.657 531.724L648.756 529.351C673.028 526.978 693.914 506.117 698.116 482.364C702.713 446.302 701.972 392.023 698.141 356.48C693.864 348.818 687.216 342.317 680.987 336.311C671.199 323.087 661.189 309.913 651.623 296.59C651.055 293.97 649.918 291.647 648.262 289.571L648.855 287.247C561.48 286.877 474.105 287.124 386.73 287.124ZM460.857 541.66C452.972 554.241 461.079 582.048 458.83 598.929C457.52 629.208 458.805 659.634 458.336 689.962C444.148 704.298 477.269 707.116 475.366 699.132C498.402 695.524 521.883 698.218 545.117 697.204C545.958 697.773 547.614 698.885 548.429 699.454C544.302 703.458 567.906 706.844 564.644 699.849C564.718 678.321 565.064 656.767 564.273 635.263C563.853 622.46 568.005 602.143 562.246 593.64C562.172 576.289 562.419 558.962 562.098 541.635C534.687 536.988 488.54 537.829 460.857 541.66ZM411.497 555.922C418.022 557.158 424.597 558.295 431.172 559.555C431.369 568.231 422.595 573.842 419.283 581.331C415.897 585.953 409.099 589.364 409.05 595.593C413.944 599.374 420.42 599.77 426.154 601.673C425.339 610.151 416.836 615.02 413.993 622.757C420.321 625.253 426.92 626.983 433.446 628.886C435.547 637.612 417.825 651.255 433.989 652.269C442.863 650.736 440.836 663.095 448.424 663.021L450.772 662.625C449.882 623.078 453.986 576.981 448.498 541.759C435.819 541.19 411.126 537.186 411.497 555.922ZM572.232 541.734C573.221 581.405 569.019 627.107 574.555 662.798C572.479 666.802 583.33 666.506 581.748 662.724C579.968 652.096 592.277 651.626 599.001 647.795C596.059 641.22 592.549 634.942 589.657 628.367C594.947 623.325 603.721 627.824 609.134 622.781C608.146 613.735 589.089 604.787 602.486 597.669C606.243 599.127 610.42 598.46 614.399 598.435C610.098 583.901 593.464 574.657 591.931 559.53C598.457 558.27 605.007 557.108 611.581 556.021C606.663 539.633 589.138 539.46 574.58 541.685L572.232 541.734ZM651.376 544.329C652.538 594.554 647.965 651.107 653.675 697.402C654.293 697.971 655.553 699.108 656.171 699.676C666.577 720.142 678.96 739.693 689.588 760.109C693.296 765.498 694.038 775.434 705.136 768.439C726.12 761.37 749.849 752.694 762.85 733.934C766.978 734.305 766.656 724.64 762.652 725.283C753.383 709.538 743.447 694.189 734.697 678.172C733.708 675.478 727.356 672.759 727.183 677.134C722.116 679.013 717.346 681.558 712.526 683.907C708.967 681.954 709.288 678.172 709.016 674.86C711.957 673.822 714.355 672.166 716.209 669.892C720.534 670.238 724.118 666.975 727.677 664.973C708.522 633.484 691.393 600.388 670.111 570.381C669.518 569.788 668.381 568.602 667.813 568.008C667.541 561.236 661.164 556.391 657.456 551.151C656.937 549.841 655.899 547.197 655.38 545.887C654.367 545.491 652.365 544.7 651.376 544.329ZM367.773 550.459C363.818 555.477 358.429 561.359 357.91 567.811C355.241 569.689 350.718 571.222 352.967 575.25C333.045 601.599 316.93 631.333 299.257 659.461C294.981 664.776 299.529 671.77 306.128 670.807C306.622 674.193 314.408 676.121 316.336 680.471C314.136 683.14 311.072 684.5 308.106 686.057C305.041 684.005 302.791 679.927 298.639 680.323C296.81 677.085 292.138 675.132 288.554 675.602C280.521 692.558 269.3 707.981 262.082 725.283C259.166 721.551 259.413 733.711 263.096 731.759C270.017 750.914 295.129 758.255 312.876 766.214C319.055 768.389 330.549 773.926 333.861 765.695C346.071 743.92 357.861 721.823 369.354 699.701L371.727 699.849C372.147 652.887 371.703 605.924 371.9 558.962C387.62 549.174 362.187 541.166 367.773 550.459ZM483.251 704.916C484.363 718.016 479.395 737.641 485.673 746.984C497.562 752.892 521.364 747.652 537.48 749.184C544.178 742.906 540.149 713.864 537.48 707.289C526.011 699.281 499.094 707.66 483.251 704.916ZM473.042 729.732C473.413 724.64 473.413 719.524 473.067 714.457C453.837 693.423 450.921 750.791 473.042 729.732ZM547.465 712.232C548.059 718.51 542.077 732.154 552.31 729.584C573.764 739.545 568.154 698.045 547.465 712.232Z"></path>
<path fill="#C29766" d="M895.951 156.692C897.286 156.964 899.98 157.483 901.34 157.755C909.941 173.079 916.417 190.332 918.221 207.881C916.417 242.707 918.814 277.509 917.752 312.36C908.186 285.196 895.803 258.773 891.008 230.176C886.583 205.656 892.837 180.939 895.951 156.692Z"></path>
<path fill="#4C5864" d="M410.682 162.574C430.554 158.298 451.292 162.204 471.436 161.808C451.613 166.356 430.776 162.278 410.682 162.574Z"></path>
<path fill="#5E6A7A" d="M531.968 162.945C540.569 160.671 549.195 160.671 557.846 162.995C549.245 163.118 540.47 162.945 531.968 162.945Z"></path>
<path fill="#37231A" d="M384.827 186.278C418.393 162.13 462.538 178.739 500.528 168.383C498.081 175.823 495.856 189.244 508.116 183.683C505.224 187.094 502.555 190.702 499.638 194.113C488.491 186.674 477.837 197.673 468.247 203.012C454.43 213.887 440.268 224.367 426.648 235.49C427.019 241.743 432.136 244.536 437.845 241.891C452.552 233.29 464.663 220.758 479.667 212.478C479.518 213.936 479.222 216.828 479.073 218.287C495.189 211.86 509.253 201.009 517.681 185.611C517.929 182.62 516.569 180.766 513.603 180C520.474 175.551 536.318 171.769 547.095 171.225C570.699 174.068 590.226 190.431 604.166 208.746C600.879 211.119 596.455 212.997 596.282 217.644C620.677 217.817 645.642 220.042 669.568 213.714C685.881 220.486 696.509 240.112 700.785 257.438C700.563 260.948 700.118 267.943 699.871 271.453C674.19 270.069 695.026 276.174 700.316 280.475C700.686 291.795 701.008 303.214 700.439 314.56C691.788 304.253 682.322 294.366 675.87 282.477C698.833 274.098 667.22 274.469 659.285 266.584C652.414 259.638 642.7 259.539 633.505 259.416C641.069 255.832 649.819 245.228 658.272 252.742C665.91 256.351 671.248 274.147 680.666 264.26C679.207 247.725 654.589 223.65 639.512 239.692C607.281 237.072 576.879 253.533 545.068 256.994C533.13 253.583 524.157 237.764 510.514 245.278C497.933 253.508 478.48 263.939 470.571 244.808C476.626 240.359 492.396 225.504 478.208 223.082C463.502 230.868 452.156 243.721 437.648 251.803C425.511 257.883 419.925 244.882 411.398 240.013C401.19 246.958 390.512 252.841 377.808 253.706C349.136 260.578 346.738 296.788 322.689 309.715C322.194 296.121 322.689 282.452 320.785 268.981C319.599 246.192 337.247 225.924 352.942 210.97C375.188 221.574 372.024 195.25 384.827 186.278ZM429.689 186.55C411.522 199.329 393.923 213.096 378.92 229.533C352.571 214.282 331.784 243.572 322.219 264.928C337.964 263.741 351.855 252.47 357.589 237.813C367.352 236.38 376.374 244.116 386.014 241.966C404.972 223.972 436.733 212.355 443.654 185.71C440.169 185.932 433.174 186.352 429.689 186.55ZM553.2 194.064C533.822 199.551 519.461 214.48 503.865 226.295C496.796 231.535 506.41 245.451 513.306 238.159C529.793 230.645 543.041 210.995 561.653 210.773C571.639 220.486 551 230.843 554.732 242.584C565.904 244.413 577.274 241.496 583.948 232.054C585.999 214.505 575.668 187.811 553.2 194.064Z"></path>
<path fill="#83827C" d="M98.2579 190.999C95.7615 188.602 95.5638 180.84 100.211 181.36C100.359 184.696 99.8893 188.058 98.2579 190.999Z"></path>
<path fill="#543A35" d="M508.116 183.683C509.5 182.768 512.244 180.915 513.603 180C516.569 180.766 517.929 182.62 517.682 185.611C509.253 201.009 495.189 211.86 479.074 218.287C479.222 216.828 479.518 213.937 479.667 212.478C464.663 220.758 452.552 233.29 437.846 241.891C432.136 244.536 427.019 241.743 426.649 235.49C440.268 224.367 454.431 213.887 468.247 203.012C477.838 197.673 488.491 186.674 499.638 194.113C502.555 190.702 505.224 187.094 508.116 183.683Z"></path>
<path fill="#553B37" d="M429.689 186.55C433.174 186.352 440.169 185.932 443.654 185.71C436.733 212.355 404.972 223.972 386.014 241.966C376.374 244.116 367.352 236.38 357.589 237.813C351.855 252.47 337.964 263.741 322.219 264.928C331.784 243.572 352.571 214.283 378.92 229.533C393.923 213.096 411.522 199.329 429.689 186.55Z"></path>
<path fill="#808078" d="M95.885 200.762C93.3145 198.192 93.5616 190.628 98.2578 190.999C98.0601 194.361 97.5164 197.772 95.885 200.762Z"></path>
<path fill="#C59967" d="M105.278 228.322C115.931 215.518 115.115 188.132 136.915 190.505C123.42 252.841 115.263 316.092 105.302 379.046C104.907 328.821 104.462 278.547 105.278 228.322Z"></path>
<path fill="#563C3B" d="M553.2 194.064C575.668 187.811 585.999 214.505 583.948 232.054C577.274 241.496 565.904 244.413 554.732 242.584C551 230.843 571.639 220.487 561.653 210.773C543.041 210.995 529.793 230.645 513.306 238.159C506.41 245.451 496.796 231.535 503.865 226.295C519.461 214.48 533.822 199.551 553.2 194.064Z"></path>
<path fill="#545E6B" d="M606.267 193.471C622.21 193.248 638.35 191.914 654.144 195.226C638.202 195.151 621.518 197.598 606.267 193.471Z"></path>
<path fill="#CC9D68" d="M865.549 200.861C865.45 195.3 867.428 194.583 870.27 199.106C878.921 222.044 877.685 247.675 887.992 270.094C897.533 292.66 899.09 317.402 900.474 341.575C909.62 408.682 910.485 477.272 900.672 544.057C877.685 595.073 873.73 652.961 881.64 707.783C891.7 663.663 886.88 614.649 902.328 570.529C907.939 554.29 915.305 538.545 917.826 521.392C918.023 549.47 918.32 577.524 918.147 605.603C917.01 605.306 914.711 604.663 913.574 604.367C898.176 639.243 895.951 678.345 892.219 715.841C888.066 747.429 880.033 778.276 874.769 809.667C871.209 823.978 869.627 842.219 856.132 850.994C859.938 838.19 869.133 826.87 868.466 812.979C868.762 810.112 869.108 807.244 869.479 804.377C870.27 801.856 870.962 799.335 871.605 796.789C876.35 636.178 872.272 475.072 873.632 314.263C872 283.762 876.82 252.322 871.679 222.291C871.16 220.981 870.122 218.386 869.603 217.076C868.293 211.662 866.884 206.274 865.549 200.861ZM883.593 410.536C891.107 444.448 876.178 478.656 881.418 511.999C898.275 486.912 897.854 451.047 892.194 421.51C891.304 416.765 890.192 409.201 883.593 410.536Z"></path>
<path fill="#83837B" d="M927.96 198.587C932.854 198.908 931.865 207.461 929.418 210.328C927.638 206.67 927.564 202.542 927.96 198.587Z"></path>
<path fill="#72716B" d="M93.2898 217.446C91.263 213.566 90.6698 205.335 94.9705 203.283C95.0694 208.004 95.0694 212.725 94.7975 217.471L93.2898 217.446Z"></path>
<path fill="#573F3B" d="M604.166 208.746C624.904 204.89 651.969 199.205 669.568 213.714C645.642 220.042 620.677 217.817 596.282 217.644C596.455 212.997 600.879 211.119 604.166 208.746Z"></path>
<path fill="#8C6E4B" d="M918.221 207.881C923.239 208.252 919.482 216.68 920.644 220.363C920.52 413.156 920.594 605.949 920.619 798.742C918.987 806.997 922.571 821.581 915.651 826.079C915.478 819.307 915.453 812.584 915.527 805.861C917.233 797.234 918.617 788.484 917.826 779.685C918.172 752.818 918.345 725.95 917.653 699.083C918.543 671.177 918.073 643.247 917.875 615.341C917.999 612.104 918.098 608.841 918.147 605.603C918.32 577.524 918.023 549.471 917.826 521.392C918.345 451.715 918.345 382.013 917.752 312.36C918.814 277.509 916.417 242.707 918.221 207.881Z"></path>
<path fill="#5A6773" d="M162.794 220.264C160.05 218.163 159.778 210.451 164.326 210.872C164.697 214.085 164.475 217.422 162.794 220.264Z"></path>
<path fill="#878880" d="M930.16 212.503L932.706 213.096C933.076 410.709 933.2 608.371 932.631 805.984L929.987 806.552C930.926 608.569 930.58 410.511 930.16 212.503Z"></path>
<path fill="#7D6244" d="M102.509 215.469L104.882 215.321C105.006 219.671 105.154 223.996 105.277 228.322C104.462 278.547 104.907 328.821 105.302 379.046C104.832 393.926 105.154 408.806 105.549 423.685C104.388 462.392 104.783 501.124 105.45 539.831C104.684 566.575 104.486 593.368 105.525 620.112C104.931 649.797 104.363 679.507 105.253 709.192C105.104 715.816 105.055 722.49 105.104 729.163C104.857 751.359 104.808 773.58 105.203 795.801C105.104 800.892 104.956 806.009 104.857 811.125L102.484 811.051C102.46 612.524 102.385 413.996 102.509 215.469Z"></path>
<path fill="#8C8B83" d="M90.5709 217.916L93.2897 217.446C91.9056 369.333 92.4493 521.293 93.0178 673.204C92.0538 718.461 92.5235 763.767 92.8943 809.049L90.3484 808.431C90.1012 611.609 89.6069 414.713 90.5709 217.916Z"></path>
<path fill="#1A1A18" d="M93.2898 217.446L94.7975 217.471C94.0312 369.333 97.5658 521.466 93.0178 673.204C92.4493 521.293 91.9056 369.333 93.2898 217.446Z"></path>
<path fill="#231C14" d="M869.603 217.076C870.122 218.386 871.16 220.981 871.679 222.291C870.048 336.385 872.421 450.503 870.443 564.597C866.711 449.07 868.837 332.825 869.603 217.076Z"></path>
<path fill="#261F17" d="M149.373 237.517C149.892 231.585 150.534 225.677 151.276 219.77C152.166 414.614 152.611 609.533 151.029 804.377C150.04 800.274 149.175 796.147 148.433 792.019C150.683 607.21 148.854 422.351 149.373 237.517Z"></path>
<path fill="#2C251B" d="M920.644 220.363L923.016 220.338C923.016 413.082 923.214 605.85 922.942 798.618L920.619 798.742C920.594 605.949 920.52 413.156 920.644 220.363Z"></path>
<path fill="#CA9D6B" d="M105.549 423.685C124.853 357.716 128.512 288.186 145.814 221.698C146.11 225.702 146.679 233.685 146.951 237.69C147.989 422.425 144.924 607.457 148.434 792.019C149.175 796.147 150.04 800.274 151.029 804.377C152.388 811.57 154.712 818.565 157.183 825.461C157.801 829.811 158.518 834.186 158.914 838.586C135.68 833.667 118.279 814.412 105.203 795.8C104.808 773.58 104.857 751.359 105.105 729.163C112.05 737.839 120.627 745.378 126.188 755.141C131.23 765.324 127.943 782.527 141.117 787.125C139.041 746.465 136.396 705.633 126.386 666.036C123.741 638.699 112.668 610.62 120.33 583.259C133.01 601.08 118.625 637.463 139.486 650.959C141.216 624.289 133.406 598.114 134.839 571.543C140.598 551.126 147 530.463 144.207 508.934C131.082 529.054 127.795 553.944 115.164 574.262C110.888 559.456 114.448 543.217 108.318 528.856C107.28 532.49 106.365 536.148 105.451 539.831C104.783 501.124 104.388 462.392 105.549 423.685ZM132.541 314.263C127.745 344.245 131.132 374.77 125.793 404.703C125.274 429.667 112.544 453.024 115.09 478.112C141.636 435.08 141.093 380.579 139.412 331.565C137.781 328.525 141.389 312.409 132.541 314.263Z"></path>
<path fill="#637280" d="M159.235 245.03C161.286 238.678 155.601 225.85 161.978 222.365C161.632 234.056 161.781 245.723 161.805 257.414L159.383 257.438C159.309 253.286 159.309 249.158 159.235 245.03Z"></path>
<path fill="#23160C" d="M437.648 251.803C452.157 243.721 463.502 230.868 478.208 223.082C492.396 225.504 476.626 240.359 470.571 244.808C478.48 263.939 497.933 253.508 510.514 245.278C524.157 237.764 533.13 253.583 545.068 256.994C576.879 253.533 607.281 237.072 639.512 239.692C628.216 240.31 616.204 269.772 633.506 259.416C642.7 259.539 652.414 259.638 659.286 266.584C667.22 274.469 698.833 274.098 675.871 282.477C682.322 294.366 691.788 304.253 700.439 314.56C701.008 303.214 700.687 291.795 700.316 280.475C695.026 276.174 674.19 270.069 699.871 271.453C700.118 267.943 700.563 260.948 700.785 257.438C708.299 281.612 699.03 314.041 702.565 342.07C680.493 323.878 673.498 287.989 645.32 278.127C559.824 276.569 474.081 276.545 388.609 278.052C351.731 268.289 348.345 319.552 322.689 334.605C318.66 323.903 320.439 320.22 328.028 323.557C313.716 309.418 320.884 287.124 320.785 268.981C322.689 282.452 322.194 296.121 322.689 309.715C346.738 296.788 349.136 260.578 377.808 253.706C390.512 252.841 401.19 246.958 411.398 240.013C419.926 244.882 425.512 257.883 437.648 251.803Z"></path>
<path fill="#99A9BD" d="M858.851 222.736C863.745 222.217 860.21 229.805 861.347 232.697C861.125 320.047 861.397 407.397 861.248 494.772L858.777 494.697C858.777 437.848 858.851 380.999 858.777 324.15C858.752 310.951 858.95 297.777 858.752 284.603V282.131C858.925 262.333 858.727 242.534 858.851 222.736Z"></path>
<path fill="#8E704A" d="M871.679 222.291C876.82 252.322 872 283.762 873.632 314.263C872.272 475.072 876.351 636.178 871.605 796.789C870.493 740.41 871.852 684.005 870.666 627.651C871.827 606.641 871.185 585.582 870.443 564.597C872.421 450.503 870.048 336.385 871.679 222.291Z"></path>
<path fill="#4E3B39" d="M639.512 239.692C654.589 223.65 679.207 247.725 680.666 264.261C671.249 274.147 665.91 256.351 658.272 252.742C649.819 245.228 641.069 255.832 633.506 259.416C616.204 269.772 628.216 240.31 639.512 239.692Z"></path>
<path fill="#39434A" d="M861.347 232.697H863.72C863.671 359.545 863.943 486.417 863.597 613.265L861.248 613.438C861.248 573.866 861.323 534.319 861.248 494.772C861.397 407.397 861.125 320.047 861.347 232.697Z"></path>
<path fill="#8E704D" d="M146.951 237.689L149.373 237.516C148.854 422.351 150.683 607.209 148.434 792.019C144.924 607.457 147.989 422.425 146.951 237.689Z"></path>
<path fill="#2A2E30" d="M156.961 245.179L159.235 245.031C159.309 249.158 159.309 253.286 159.383 257.438C159.383 330.947 158.963 404.455 159.606 477.964C159.161 504.263 159.21 530.562 159.21 556.886C159.185 560.84 159.235 564.82 159.309 568.799C159.21 607.531 159.408 646.262 159.309 685.019H156.911C156.813 538.397 156.714 391.776 156.961 245.179Z"></path>
<path fill="#1F242B" d="M711.389 249.232C712.254 251.729 712.946 254.25 713.515 256.845C712.921 290.164 712.403 323.507 713.49 356.826C713.366 358.531 713.095 361.917 712.946 363.623L710.499 363.771C710.722 325.583 709.758 287.396 711.389 249.232Z"></path>
<path fill="#30363B" d="M309.638 259.342C310.132 256.746 310.8 254.2 311.64 251.704C313.346 327.684 312.703 403.739 312.011 479.719L309.589 480.782C309.91 465.679 310.182 450.577 310.058 435.475C309.811 376.748 310.701 318.045 309.638 259.342Z"></path>
<path fill="#A0AAB2" d="M159.383 257.439L161.806 257.414C161.781 283.762 161.682 310.135 161.806 336.508C161.756 367.528 161.558 398.573 162.053 429.617C161.682 444.052 161.534 458.586 163.338 472.971C162.102 474.627 160.866 476.308 159.606 477.964C158.963 404.456 159.383 330.947 159.383 257.439Z"></path>
<path fill="#FBFBFB" d="M161.805 257.414C184.619 262.555 217.097 246.736 235.19 265.595C243.248 274.567 231.507 288.36 238.947 296.541C251.652 296.862 264.381 297.208 277.11 297.554C290.136 305.488 291.545 328.92 277.283 335.915C238.848 337.546 200.29 335.989 161.805 336.508C161.682 310.135 161.78 283.762 161.805 257.414Z"></path>
<path fill="#FBFBFB" d="M772.292 324.026C748.118 331.244 742.458 293.402 759.464 284.182C792.535 285.023 825.631 284.454 858.752 284.603C858.95 297.777 858.752 310.951 858.777 324.15C829.932 324.026 801.087 324.545 772.292 324.026Z"></path>
<path fill="#FBFBFB" d="M616.599 361.25C628.117 361.226 639.61 361.226 651.203 361.275C650.98 372.719 651.771 384.212 650.906 395.656C639.413 395.928 628.043 395.953 616.624 395.755C616.549 384.262 616.525 372.744 616.599 361.25Z"></path>
<path fill="#718397" d="M713.515 256.845C717.024 289.966 716.357 323.656 713.49 356.826C712.402 323.507 712.921 290.164 713.515 256.845Z"></path>
<path fill="#8395A9" d="M307.562 435.08C308.996 376.525 304.868 317.674 309.638 259.342C310.701 318.045 309.811 376.748 310.058 435.475L307.562 435.08Z"></path>
<path fill="#D2DEEB" d="M759.464 284.182C791.447 277.657 825.977 284.677 858.752 282.131V284.603C825.631 284.454 792.535 285.023 759.464 284.182Z"></path>
<path fill="#342B23" d="M386.731 287.124C474.105 287.124 561.48 286.877 648.855 287.247L648.262 289.571C561.06 289.447 473.883 289.645 386.706 289.497L386.731 287.124Z"></path>
<path fill="#C69B74" d="M371.579 293.773C372.32 287.544 377.363 286.135 386.706 289.497C473.883 289.645 561.06 289.447 648.261 289.571C649.918 291.647 651.054 293.97 651.623 296.59C642.972 290.263 631.429 292.883 621.567 291.944C545.834 292.067 470.076 292.018 394.343 291.968C386.607 292.117 379.043 291.894 371.579 293.773Z"></path>
<path fill="#F1BD8C" d="M394.343 291.968C470.076 292.018 545.834 292.067 621.567 291.944C631.429 292.883 642.972 290.263 651.623 296.59C661.189 309.913 671.199 323.087 680.987 336.311C680.814 380.035 679.825 423.809 683.137 467.435C683.113 491.336 665.094 517.462 638.795 514.273C552.31 514.644 465.8 514.57 379.315 514.298C361.247 515.831 345.008 501.544 339.224 485.354C340.485 441.259 339.101 397.164 340.015 353.069C342.734 361.448 346.022 369.827 351.286 376.97C352.102 370.569 353.709 357.815 354.524 351.413C356.848 379.17 350.298 408.806 356.65 435.772C359.838 440.666 363.744 445.288 368.909 448.229C370.145 448.847 372.642 450.083 373.878 450.701C393.577 452.407 414.809 456.065 434.261 450.825C435.522 450.232 438.068 449.045 439.328 448.427C445.878 445.56 450.624 439.826 454.307 433.844C454.752 433.029 455.691 431.397 456.161 430.557C459.077 409.646 460.98 386.363 456.185 365.946C455.691 365.205 454.678 363.697 454.183 362.931C450.846 357.147 445.656 352.896 439.6 350.276C438.785 349.856 437.153 349.015 436.338 348.595C413.524 341.65 388.164 349.089 364.609 346.519C371.159 326.745 382.43 308.924 394.343 291.968ZM584.417 351.289C576.854 350.498 569.637 357.567 567.214 363.771C560.393 379.516 564.669 417.061 567.165 432.732C569.291 440.468 576.112 447.364 584.393 447.735C599.248 453.074 634.099 451.171 648.533 447.71C654.762 446.302 659.631 441.457 661.016 435.204C661.658 434.017 662.919 431.669 663.561 430.483C669.296 410.561 666.602 371.261 663.512 351.339L661.065 351.363C641.86 346.247 603.796 347.755 584.417 351.289ZM468.322 464.765C481.866 498.455 536.293 498.776 551.643 466.718C563.161 454.409 545.958 451.64 543.412 458.561C538.172 467.88 529.125 473.639 519.906 478.434C514.963 475.764 507.943 475.814 503.098 478.607C495.14 474.059 484.659 471.933 480.655 462.565C479.246 449.243 464.639 455.991 468.322 464.765Z"></path>
<path fill="#E6B181" d="M371.579 293.773C379.043 291.894 386.607 292.117 394.343 291.968C382.43 308.924 371.159 326.745 364.609 346.519C388.164 349.089 413.524 341.65 436.338 348.595C409.791 350.004 382.454 346.469 356.353 350.473L354.524 351.413C353.708 357.814 352.102 370.568 351.286 376.97C346.021 369.827 342.734 361.448 340.015 353.069C339.101 397.164 340.485 441.259 339.224 485.354C332.748 439.307 343.228 391.776 332.279 346.197C345.75 329.044 359.591 312.063 371.579 293.773Z"></path>
<path fill="#AF875D" d="M132.541 314.263C141.389 312.409 137.781 328.525 139.412 331.565C141.093 380.579 141.636 435.08 115.09 478.112C112.544 453.025 125.274 429.667 125.793 404.703C131.132 374.77 127.745 344.245 132.541 314.263Z"></path>
<path fill="#D5A06E" d="M680.987 336.311C687.216 342.317 693.865 348.817 698.141 356.48C698.091 398.449 698.215 440.394 698.116 482.364C693.914 506.117 673.028 526.978 648.756 529.351C554.807 529.202 460.857 529.4 366.883 529.252C343.995 525.594 324.196 505.771 322.392 482.388C322.664 440.592 322.046 398.771 322.664 356.949C325.012 352.747 327.83 348.471 332.279 346.197C343.229 391.776 332.749 439.306 339.224 485.354C345.008 501.544 361.247 515.83 379.315 514.298C465.8 514.57 552.31 514.644 638.795 514.273C665.094 517.462 683.113 491.336 683.137 467.434C679.825 423.809 680.814 380.035 680.987 336.311Z"></path>
<path fill="#5C4C3D" d="M356.353 350.473C382.454 346.469 409.792 350.004 436.338 348.595C437.153 349.015 438.785 349.856 439.6 350.276C411.917 352.377 384.061 349.757 356.502 352.896L356.353 350.473Z"></path>
<path fill="#635240" d="M584.418 351.289C603.796 347.755 641.86 346.247 661.065 351.363C635.508 351.314 609.95 351.388 584.418 351.289Z"></path>
<path fill="#907053" d="M354.524 351.413L356.353 350.473L356.501 352.896C357.391 380.505 357.119 408.138 356.65 435.772C350.298 408.806 356.848 379.17 354.524 351.413Z"></path>
<path fill="#030303" d="M356.501 352.896C384.061 349.757 411.917 352.377 439.6 350.276C445.656 352.896 450.846 357.147 454.183 362.931C453.195 386.56 453.021 410.239 454.307 433.844C450.624 439.825 445.878 445.56 439.328 448.427C415.847 447.537 392.366 447.562 368.909 448.229C363.744 445.288 359.838 440.666 356.65 435.772C357.119 408.138 357.391 380.505 356.501 352.896ZM366.907 361.25C363.768 371.483 362.977 383.792 364.584 398.177C377.709 398.523 390.858 398.548 404.032 398.202C408.284 393.53 408.432 366.095 403.983 361.25C398.941 356.826 371.999 356.826 366.907 361.25Z"></path>
<path fill="#030303" d="M567.214 363.771C569.637 357.567 576.854 350.498 584.417 351.289C609.95 351.388 635.508 351.314 661.065 351.363C660.991 379.318 661.189 407.248 661.016 435.203C659.631 441.457 654.762 446.301 648.533 447.71C627.129 447.76 605.773 447.784 584.393 447.735C576.112 447.364 569.291 440.468 567.165 432.732C567.091 409.745 567.041 386.758 567.214 363.771ZM616.599 361.25C612.076 365.971 612.274 393.876 616.55 398.103C628.908 398.82 641.217 398.375 653.625 398.177C657.975 393.53 658.025 366.243 653.625 361.201C648.682 356.875 621.518 356.801 616.599 361.25Z"></path>
<path fill="#42352A" d="M661.065 351.363L663.512 351.339C663.537 377.712 663.487 404.085 663.561 430.482C662.919 431.669 661.658 434.017 661.015 435.203C661.188 407.248 660.991 379.318 661.065 351.363Z"></path>
<path fill="#BA9772" d="M663.512 351.339C666.601 371.26 669.296 410.561 663.561 430.482C663.487 404.085 663.537 377.712 663.512 351.339Z"></path>
<path fill="#876749" d="M320.266 356.134L322.664 356.949C322.046 398.771 322.664 440.592 322.392 482.388C316.806 444.893 321.206 397.436 320.266 356.134Z"></path>
<path fill="#654E36" d="M698.141 356.48C701.972 392.023 702.713 446.301 698.116 482.364C698.215 440.394 698.091 398.449 698.141 356.48Z"></path>
<path fill="#5E6163" d="M366.907 361.25C371.999 356.826 398.941 356.826 403.983 361.25C391.575 361.225 379.266 361.201 366.907 361.25Z"></path>
<path fill="#616163" d="M616.599 361.25C621.518 356.801 648.682 356.875 653.625 361.201L651.203 361.275C639.611 361.225 628.117 361.225 616.599 361.25Z"></path>
<path fill="#8E8F90" d="M364.584 398.177C362.977 383.792 363.768 371.483 366.907 361.25C366.883 370.47 367.031 379.714 367.229 388.958C365.919 404.159 390.71 393.259 401.561 395.78L403.983 395.829L404.032 398.202C390.858 398.548 377.709 398.523 364.584 398.177Z"></path>
<path fill="#E2E2E2" d="M366.907 361.25C379.266 361.201 391.575 361.225 403.983 361.25C403.933 372.768 404.008 384.286 403.983 395.829L401.561 395.78C401.412 385.102 401.956 374.424 401.338 363.796C390.809 363.672 380.304 362.906 369.873 364.018C369.206 370.247 367.871 382.705 367.229 388.958C367.031 379.714 366.883 370.47 366.907 361.25Z"></path>
<path fill="#525252" d="M403.983 361.25C408.432 366.095 408.284 393.531 404.032 398.202L403.983 395.829C404.008 384.286 403.934 372.768 403.983 361.25Z"></path>
<path fill="#747475" d="M616.549 398.103C612.273 393.877 612.076 365.971 616.599 361.25C616.525 372.744 616.55 384.262 616.624 395.755L616.549 398.103Z"></path>
<path fill="#B1B0B1" d="M651.203 361.275L653.625 361.201C653.576 373.51 653.65 385.844 653.625 398.177C641.217 398.375 628.908 398.82 616.55 398.103L616.624 395.755C628.043 395.953 639.413 395.928 650.906 395.656C651.771 384.212 650.98 372.719 651.203 361.275Z"></path>
<path fill="#313031" d="M653.625 361.201C658.025 366.243 657.976 393.531 653.625 398.177C653.65 385.844 653.576 373.51 653.625 361.201Z"></path>
<path fill="#FEFEFE" d="M369.874 364.018C380.304 362.906 390.809 363.672 401.338 363.796C401.956 374.424 401.413 385.102 401.561 395.78C390.71 393.259 365.919 404.159 367.229 388.958C367.871 382.704 369.206 370.247 369.874 364.018Z"></path>
<path fill="#392E25" d="M454.183 362.931C454.678 363.697 455.691 365.205 456.185 365.946C455.913 387.475 455.815 409.028 456.161 430.557C455.691 431.397 454.752 433.028 454.307 433.844C453.022 410.239 453.195 386.56 454.183 362.931Z"></path>
<path fill="#5A4C3E" d="M567.165 432.732C564.668 417.061 560.392 379.516 567.214 363.771C567.041 386.758 567.091 409.745 567.165 432.732Z"></path>
<path fill="#8BA0B8" d="M710.499 363.771L712.946 363.623C712.106 401.712 714.998 439.974 711.092 477.939C710.029 442.174 710.944 406.359 709.955 370.593C710.079 368.888 710.351 365.477 710.499 363.771Z"></path>
<path fill="#B1926D" d="M456.185 365.946C460.98 386.363 459.077 409.646 456.16 430.557C455.814 409.028 455.913 387.475 456.185 365.946Z"></path>
<path fill="#343C46" d="M708.027 485.107C708.893 446.944 705.951 408.633 709.955 370.593C710.944 406.359 710.03 442.174 711.092 477.939C710.944 479.62 710.623 482.957 710.45 484.638L708.027 485.107Z"></path>
<path fill="#76A0C9" d="M748.02 409.003C753.705 399.907 768.139 408.534 776.593 405.815C785.936 412.118 771.081 435.846 787.097 432.929C807.217 423.389 795.823 446.351 799.654 452.678C792.239 474.874 817.92 465.581 828.82 467.855C828.968 474.528 829.289 487.851 829.438 494.524C839.176 494.747 848.964 494.821 858.777 494.697L861.249 494.771C861.323 534.319 861.249 573.866 861.249 613.438C851.831 610.077 836.309 619.247 829.635 610.052C829.413 601.104 828.968 583.209 828.746 574.286C780.201 572.778 731.805 568.453 683.236 568.898C676.711 558.566 669.296 548.679 664.13 537.557C682.272 530.092 695.867 516.399 705.951 499.789C709.164 497.293 709.016 492.992 707.706 489.531C707.78 488.419 707.953 486.219 708.028 485.107L710.45 484.637C712.625 496.378 706.297 516.498 713.045 524.383C737.738 533.132 724.786 502.805 727.48 490.792C710.351 492.25 720.015 470.722 717.989 460.464C726.813 457.053 740.135 464.666 747.278 456.905C747.402 440.938 747.649 424.971 748.02 409.003Z"></path>
<path fill="#B6895B" d="M883.593 410.536C890.192 409.201 891.304 416.765 892.194 421.51C897.854 451.047 898.275 486.912 881.418 511.999C876.178 478.656 891.107 444.448 883.593 410.536Z"></path>
<path fill="#F0F3F6" d="M162.052 429.617C177.179 436.513 170.679 457.004 166.155 469.437C165.463 470.302 164.054 472.081 163.338 472.971C161.533 458.586 161.682 444.052 162.052 429.617Z"></path>
<path fill="#F8F9F9" d="M282.276 478.038C283.043 458.685 276.418 426.849 307.562 435.08C308.155 450.231 305.856 465.902 309.589 480.782C309.811 483.822 309.935 486.837 309.959 489.878C301.482 489.729 293.028 490.323 284.872 487.826C283.833 484.613 283.018 481.325 282.276 478.038Z"></path>
<path fill="#CCCFD0" d="M307.562 435.08L310.058 435.475C310.182 450.577 309.91 465.68 309.588 480.782C305.856 465.902 308.155 450.231 307.562 435.08Z"></path>
<path fill="#32281F" d="M368.909 448.229C392.366 447.562 415.847 447.537 439.328 448.427C438.068 449.045 435.522 450.231 434.261 450.825C414.117 450.133 393.973 450.083 373.878 450.701C372.642 450.083 370.145 448.847 368.909 448.229Z"></path>
<path fill="#4A3B2D" d="M584.393 447.735C605.773 447.784 627.129 447.76 648.533 447.71C634.099 451.171 599.248 453.074 584.393 447.735Z"></path>
<path fill="#C39A72" d="M373.877 450.701C393.972 450.083 414.117 450.133 434.261 450.825C414.809 456.065 393.577 452.407 373.877 450.701Z"></path>
<path fill="#1F1913" d="M468.322 464.765C464.639 455.991 479.246 449.243 480.655 462.565C484.659 471.933 495.14 474.059 503.098 478.607C507.968 481.103 515.16 481.894 519.906 478.434C529.125 473.639 538.172 467.879 543.412 458.561C545.958 451.64 563.161 454.409 551.643 466.718C536.293 498.776 481.866 498.454 468.322 464.765Z"></path>
<path fill="#78A1CA" d="M166.156 469.437C176.512 466.1 187.585 467.682 198.313 467.608C199.969 474.825 196.731 483.501 201.773 489.63C218.531 488.172 249.922 499.295 241.641 470.524C253.53 473.935 281.535 457.523 282.276 478.038C283.018 481.325 283.833 484.613 284.872 487.826C284.699 496.996 309.688 492.671 309.959 489.878C309.935 486.837 309.811 483.822 309.589 480.782L312.011 479.719C310.553 508.91 334.701 529.796 359.567 539.806C352.275 553.499 343.698 566.476 335.64 579.749C328.028 581.578 320.291 580.045 312.777 578.538C327.855 536.123 269.943 574.756 265.815 546.158C246.486 541.24 221.052 544.898 199.449 544.403C206.321 570.875 172.607 555.749 159.21 556.886C159.21 530.562 159.161 504.263 159.606 477.964C160.866 476.308 162.102 474.627 163.338 472.971C164.055 472.081 165.464 470.302 166.156 469.437Z"></path>
<path fill="#665441" d="M503.098 478.607C507.943 475.814 514.963 475.764 519.906 478.434C515.16 481.894 507.968 481.103 503.098 478.607Z"></path>
<path fill="#B8CEE2" d="M284.872 487.826C293.028 490.323 301.482 489.729 309.959 489.878C309.688 492.671 284.699 496.996 284.872 487.826Z"></path>
<path fill="#3E5672" d="M705.951 499.789C704.518 496.329 704.369 491.954 707.706 489.532C709.016 492.992 709.164 497.293 705.951 499.789Z"></path>
<path fill="#AF885E" d="M115.165 574.262C127.795 553.944 131.082 529.054 144.207 508.934C147 530.463 140.598 551.126 134.839 571.543C133.406 598.113 141.216 624.289 139.486 650.959C118.625 637.463 133.01 601.08 120.33 583.259C112.668 610.62 123.741 638.699 126.386 666.036C136.396 705.633 139.041 746.465 141.117 787.125C127.943 782.527 131.231 765.324 126.188 755.141C120.627 745.378 112.05 737.839 105.105 729.163C105.055 722.49 105.105 715.816 105.253 709.192C111.902 717.67 117.636 726.914 124.458 735.293C125.076 696.265 110.617 658.645 105.525 620.112C104.487 593.368 104.684 566.574 105.451 539.831C106.365 536.148 107.28 532.49 108.318 528.856C114.448 543.217 110.888 559.456 115.165 574.262Z"></path>
<path fill="#7D5E42" d="M366.883 529.252C460.857 529.4 554.807 529.203 648.756 529.351L648.657 531.724C554.782 531.699 460.906 532.02 367.056 531.6L366.883 529.252Z"></path>
<path fill="#352C20" d="M460.857 541.66C488.54 537.829 534.687 536.988 562.098 541.635L559.701 541.709C526.753 541.61 493.805 541.66 460.857 541.66Z"></path>
<path fill="#382213" d="M379.439 541.932L381.812 541.734C381.095 616.75 382.924 691.841 381.021 766.832C377.14 692.014 380.131 616.874 379.439 541.932Z"></path>
<path fill="#884E26" d="M381.812 541.734C389.4 541.264 396.642 541.635 404.379 541.858C401.116 548.259 395.332 553.524 393.8 560.717C397.952 565.561 419.505 561.681 412.881 572.779C407.196 583.11 395.777 589.858 391.427 600.585C397.631 603.922 404.774 604.664 411.448 606.69C407.542 614.55 399.015 620.655 398.891 629.999C403.958 631.556 414.043 634.67 419.11 636.203C417.182 641.739 411.818 646.386 411.843 652.343C419.308 661.266 436.189 661.439 435.25 676.318C435.769 683.758 444.766 675.799 448.128 680.668C449.537 708.574 447.633 736.603 449.067 764.533C426.525 767.846 403.687 766.313 381.021 766.832C382.924 691.841 381.095 616.75 381.812 541.734ZM384.259 652.837C384.234 686.255 384.037 719.697 384.308 753.114C401.759 754.523 420.321 755.932 436.956 752.57C441.652 736.826 437.549 717.447 437.944 700.665C427.217 677.851 403.711 666.827 384.259 652.837Z"></path>
<path fill="#6C6A6A" d="M411.497 555.922C411.126 537.186 435.819 541.19 448.498 541.759C448.449 555.032 448.498 568.354 448.301 581.652C444.074 566.97 444.049 583.358 436.412 585.953C430.949 583.16 425.734 577.697 419.283 581.331C422.595 573.842 431.37 568.231 431.172 559.555C424.597 558.294 418.022 557.158 411.497 555.922Z"></path>
<path fill="#323231" d="M448.498 541.759C453.986 576.98 449.883 623.078 450.772 662.625L448.424 663.02C448.474 635.881 448.696 608.766 448.301 581.652C448.498 568.354 448.449 555.032 448.498 541.759Z"></path>
<path fill="#5A4B36" d="M458.83 598.929C461.08 582.047 452.972 554.241 460.857 541.66C460.783 548.235 460.783 554.809 460.907 561.409C460.956 565.561 461.079 573.891 461.129 578.043C461.03 584.593 460.981 591.143 461.03 597.718L458.83 598.929Z"></path>
<path fill="#D3A673" d="M460.857 541.66C493.805 541.66 526.753 541.61 559.7 541.709C559.75 548.259 559.799 554.809 559.824 561.384C544.648 561.433 529.397 560.84 514.345 562.768C512.417 562.818 510.489 562.916 508.586 563.04C492.693 561.433 476.8 561.285 460.906 561.409C460.783 554.809 460.783 548.235 460.857 541.66Z"></path>
<path fill="#9F7954" d="M559.7 541.709L562.098 541.635C562.419 558.962 562.172 576.288 562.246 593.64C562.222 595.444 562.221 599.053 562.197 600.857C559.601 599.374 556.808 597.866 557.179 602.291C552.285 607.852 550.011 620.235 540.619 617.961C534.242 610.596 528.532 602.81 521.883 595.716C520.944 594.95 519.065 593.417 518.126 592.651C517.953 625.994 515.753 659.56 519.758 692.755L520.029 694.905C513.504 695.029 507.028 695.078 500.602 695.078L500.874 693.151C504.631 660.821 502.851 628.095 502.53 595.617C493.953 603.798 486.958 613.463 478.233 621.446C470.917 614.872 466.863 605.479 461.03 597.718C460.98 591.143 461.03 584.593 461.129 578.043C471.114 581.158 477.269 589.907 485.203 596.136C493.187 585.236 501.689 574.682 508.585 563.04C510.489 562.916 512.417 562.817 514.345 562.768C522.501 574.978 531.646 586.669 542.349 596.779C551.544 587.238 561.801 575.522 559.824 561.384C559.799 554.809 559.75 548.259 559.7 541.709Z"></path>
<path fill="#4E4C49" d="M572.232 541.734L574.58 541.685C574.555 553.005 574.481 564.375 574.704 575.72C574.58 586.719 574.506 597.718 574.605 608.742C574.456 626.736 574.531 644.755 574.555 662.798C569.019 627.107 573.221 581.405 572.232 541.734Z"></path>
<path fill="#746F6A" d="M574.58 541.685C589.138 539.46 606.663 539.633 611.581 556.02C605.007 557.108 598.457 558.27 591.931 559.53C593.464 574.657 610.098 583.901 614.399 598.435C610.42 598.46 606.242 599.127 602.485 597.669L601.398 595.815C596.85 584.569 585.134 580.045 574.704 575.72C574.481 564.375 574.555 553.005 574.58 541.685Z"></path>
<path fill="#884924" d="M616.624 541.684C624.855 541.338 632.962 541.388 641.292 541.684C641.242 555.477 641.143 569.293 640.772 583.11C634.865 606.839 647.619 637.29 627.104 656.001C612.916 672.833 590.226 685.291 585.505 708.302C583.726 722.465 583.083 737.27 587.73 750.988C604.958 758.379 625.473 752.249 643.788 754.251C643.813 758.305 643.788 762.358 643.467 766.387C621.394 766.758 599.322 767.129 577.299 766.362C576.533 752.2 577.868 737.839 575.322 723.849C578.164 709.019 562.37 675.107 588.199 678.815C587.408 664.578 595.491 657.929 608.22 656.668C619.59 652.54 608.69 642.703 606.391 635.906C612.027 633.434 618.107 632.223 623.817 629.949C624.039 621.891 617.365 615.712 614.523 608.544C619.071 606.295 623.94 604.762 628.562 602.563C629.131 588.4 608.813 581.429 609.481 567.341C615.166 565.289 621.271 564.103 626.56 561.013C626.758 553.301 619.986 548.061 616.624 541.684Z"></path>
<path fill="#64381C" d="M641.291 541.685L643.64 541.858C643.887 593.047 644.06 644.26 643.244 695.474C638.844 658.176 642.799 620.532 640.772 583.11C641.143 569.294 641.242 555.477 641.291 541.685Z"></path>
<path fill="#676F74" d="M199.449 544.404C221.052 544.898 246.486 541.24 265.815 546.158C259.512 569.763 292.064 554.735 305.065 558.987C317.028 556.194 305.065 576.214 312.777 578.538C320.291 580.045 328.027 581.578 335.64 579.749C332.575 585.335 329.313 590.797 325.778 596.087C323.603 585.582 307.809 595.939 303.582 587.757C311.739 555.304 273.551 575.596 257.658 567.069C256.941 543.711 225.995 555.922 209.657 554.538C211.462 581.405 177.525 564.647 161.781 568.898L159.309 568.799C159.235 564.82 159.185 560.84 159.21 556.886C172.607 555.749 206.321 570.875 199.449 544.404Z"></path>
<path fill="#302B24" d="M651.376 544.329C652.365 544.7 654.367 545.491 655.38 545.887C651.5 596.26 654.639 646.905 653.675 697.402C647.965 651.107 652.538 594.554 651.376 544.329Z"></path>
<path fill="#6F89A4" d="M265.815 546.158C269.942 574.756 327.854 536.123 312.777 578.538C305.065 576.214 317.028 556.194 305.065 558.987C292.064 554.735 259.512 569.763 265.815 546.158Z"></path>
<path fill="#6C5E4F" d="M367.773 550.459C362.187 541.165 387.62 549.174 371.9 558.962C371.703 605.924 372.147 652.887 371.727 699.849L369.354 699.701C367.896 650.019 372.271 599.844 367.773 550.459Z"></path>
<path fill="#968569" d="M653.675 697.402C654.638 646.905 651.499 596.26 655.38 545.886C655.899 547.196 656.937 549.841 657.456 551.151C654.688 600.585 656.616 650.168 656.171 699.676C655.553 699.107 654.292 697.97 653.675 697.402Z"></path>
<path fill="#C1A485" d="M357.91 567.81C358.429 561.359 363.818 555.477 367.772 550.459C372.271 599.844 367.896 650.019 369.354 699.701C357.861 721.822 346.071 743.919 333.861 765.695C330.549 773.926 319.055 768.389 312.876 766.214C295.129 758.255 270.016 750.914 263.096 731.759C284.6 734.823 302.371 751.013 324.493 751.804C359.319 697.254 364.559 630.666 357.91 567.81Z"></path>
<path fill="#C5AA84" d="M656.171 699.676C656.616 650.168 654.688 600.585 657.456 551.151C661.164 556.391 667.541 561.236 667.813 568.008C664.97 590.501 669.889 613.043 668.53 635.634C665.86 678.296 686.771 716.755 703.43 754.424C723.698 751.532 739.69 735.862 760.032 732.673L762.059 732.179L762.85 733.934C749.849 752.694 726.12 761.37 705.135 768.439C694.037 775.434 693.296 765.497 689.588 760.109C678.96 739.693 666.577 720.142 656.171 699.676Z"></path>
<path fill="#80926F" d="M209.658 554.537C225.996 555.922 256.941 543.711 257.658 567.069C273.551 575.596 311.739 555.304 303.583 587.757C307.809 595.938 323.603 585.582 325.778 596.087C315.546 611.733 305.684 627.626 295.97 643.618C251.207 643.049 206.346 641.764 161.633 644.211C161.484 619.098 161.929 593.986 161.781 568.898C177.526 564.647 211.462 581.405 209.658 554.537Z"></path>
<path fill="#ECCE97" d="M460.906 561.409C476.799 561.285 492.692 561.433 508.586 563.04C501.689 574.682 493.187 585.236 485.203 596.136C477.269 589.907 471.114 581.158 461.129 578.043C461.079 573.891 460.956 565.561 460.906 561.409Z"></path>
<path fill="#EED297" d="M514.345 562.768C529.397 560.84 544.648 561.433 559.824 561.384C561.801 575.522 551.544 587.238 542.349 596.779C531.646 586.67 522.501 574.978 514.345 562.768Z"></path>
<path fill="#6F7C5E" d="M159.309 568.799L161.781 568.898C161.929 593.986 161.484 619.098 161.632 644.211C206.346 641.764 251.207 643.049 295.97 643.618C293.127 649.451 289.79 655.012 286.206 660.425C285.786 659.338 284.921 657.138 284.501 656.05C243.693 654.567 202.811 655.383 162.003 655.581C161.361 702.246 161.929 748.937 161.855 795.627C156.17 765.077 160.619 721.155 159.309 685.019C159.408 646.262 159.21 607.531 159.309 568.799Z"></path>
<path fill="#EBD1A2" d="M352.967 575.25C350.718 571.221 355.241 569.689 357.911 567.81C364.56 630.666 359.319 697.254 324.493 751.804C302.371 751.013 284.6 734.824 263.096 731.759C259.413 733.711 259.166 721.55 262.083 725.283C263.491 732.426 276.122 730.399 275.43 722.02C284.229 708.796 292.707 695.103 298.639 680.322C302.792 679.927 305.041 684.005 308.106 686.057C311.912 690.827 321.404 685.76 316.337 680.471C314.409 676.121 306.623 674.193 306.128 670.806C322.096 649.698 333.292 625.574 346.294 602.661C349.68 594.01 355.563 584.816 352.967 575.25Z"></path>
<path fill="#EED6A4" d="M668.529 635.634C669.889 613.043 664.97 590.501 667.812 568.008C668.381 568.601 669.518 569.788 670.111 570.381C669.394 608.495 703.998 635.436 716.209 669.892C714.355 672.166 711.957 673.822 709.016 674.86C701.428 676.467 705.63 689.394 712.526 683.906C717.346 681.558 722.116 679.012 727.183 677.134C722.289 692.088 738.429 703.186 743.669 716.236C748.415 722.341 750.392 733.39 760.032 732.673C739.69 735.862 723.698 751.532 703.43 754.424C686.771 716.755 665.86 678.296 668.529 635.634Z"></path>
<path fill="#677071" d="M683.236 568.898C731.805 568.453 780.201 572.779 828.746 574.286C828.968 583.209 829.413 601.104 829.635 610.052C836.309 619.247 851.831 610.077 861.248 613.438C861.248 616.725 861.248 620.038 861.248 623.325H858.826C845.85 621.57 830.846 623.918 819.501 617.64C818.933 606.443 819.872 595.222 818.834 584.05C775.802 581.306 732.25 578.488 689.243 578.637C687.142 575.448 685.164 572.161 683.236 568.898Z"></path>
<path fill="#E5DFD5" d="M716.209 669.892C703.999 635.436 669.395 608.495 670.111 570.381C691.393 600.388 708.522 633.484 727.678 664.973C724.118 666.975 720.534 670.238 716.209 669.892Z"></path>
<path fill="#848281" d="M436.412 585.953C444.049 583.357 444.074 566.97 448.301 581.652C448.696 608.767 448.474 635.881 448.424 663.021C440.836 663.095 442.863 650.736 433.989 652.269C417.825 651.255 435.547 637.611 433.446 628.886C426.92 626.983 420.321 625.253 413.993 622.756C416.836 615.02 425.339 610.151 426.154 601.673C420.42 599.77 413.944 599.374 409.05 595.592C409.099 589.364 415.897 585.953 419.283 581.331C425.734 577.697 430.949 583.16 436.412 585.953Z"></path>
<path fill="#EAE3D4" d="M299.257 659.461C316.93 631.333 333.045 601.599 352.967 575.25C355.562 584.816 349.68 594.01 346.293 602.661C333.292 625.574 322.095 649.698 306.128 670.806C299.529 671.77 294.981 664.775 299.257 659.461Z"></path>
<path fill="#9C9891" d="M574.704 575.72C585.134 580.045 596.85 584.569 601.398 595.815C593.266 601.772 585.777 610.373 574.605 608.742C574.506 597.718 574.58 586.719 574.704 575.72Z"></path>
<path fill="#80936E" d="M689.242 578.637C732.25 578.488 775.802 581.306 818.834 584.05C819.872 595.222 818.933 606.443 819.501 617.64C830.846 623.918 845.85 621.57 858.826 623.325C855.712 630.987 866.538 654.691 846.517 644.977C806.327 638.575 764.086 649.13 724.662 638.847C712.699 618.851 700.983 598.732 689.242 578.637Z"></path>
<path fill="#A15D2E" d="M627.104 656.001C647.619 637.29 634.865 606.839 640.772 583.11C642.799 620.532 638.845 658.176 643.244 695.474C643.566 698.391 643.912 701.307 644.282 704.224C643.961 720.883 643.813 737.567 643.788 754.251C625.473 752.249 604.958 758.379 587.73 750.989C583.083 737.271 583.726 722.465 585.505 708.302C590.226 685.291 612.916 672.833 627.104 656.001Z"></path>
<path fill="#D4B888" d="M518.126 592.651C519.066 593.417 520.944 594.95 521.884 595.716C518.522 627.972 521.043 660.425 519.758 692.755C515.754 659.56 517.953 625.994 518.126 592.651Z"></path>
<path fill="#463C2C" d="M562.246 593.64C568.005 602.142 563.853 622.46 564.273 635.263L561.727 636.301C561.999 624.462 562.321 612.672 562.197 600.857C562.222 599.053 562.222 595.444 562.246 593.64Z"></path>
<path fill="#F4DCA6" d="M478.233 621.446C486.958 613.463 493.953 603.798 502.53 595.617C502.851 628.095 504.631 660.821 500.874 693.151C483.745 692.681 473.067 677.431 460.98 667.272C460.659 644.087 460.857 620.903 461.03 597.718C466.863 605.479 470.917 614.872 478.233 621.446Z"></path>
<path fill="#F3DAA4" d="M519.758 692.755C521.043 660.425 518.522 627.972 521.883 595.716C528.532 602.81 534.242 610.596 540.619 617.961C550.011 620.235 552.285 607.852 557.179 602.291C558.885 614.402 558.934 626.81 561.505 638.847C561.801 648.24 561.949 657.632 561.999 667.074C553.793 673.575 550.332 683.783 544.227 691.964C535.997 692.384 527.964 692.607 519.758 692.755Z"></path>
<path fill="#7D7976" d="M574.605 608.742C585.777 610.373 593.266 601.772 601.398 595.815L602.485 597.669C589.089 604.787 608.146 613.735 609.134 622.781C603.721 627.824 594.947 623.325 589.657 628.367C592.549 634.942 596.059 641.22 599 647.795C592.277 651.626 579.968 652.096 581.748 662.724C583.33 666.506 572.479 666.802 574.555 662.798C574.531 644.755 574.456 626.736 574.605 608.742Z"></path>
<path fill="#908060" d="M458.83 598.929L461.03 597.718C460.857 620.903 460.659 644.087 460.981 667.272C463.007 679.655 451.786 710.378 475.267 697.006L475.366 699.132C477.269 707.116 444.148 704.298 458.336 689.962C458.805 659.634 457.52 629.208 458.83 598.929Z"></path>
<path fill="#C9B181" d="M557.179 602.291C556.808 597.866 559.602 599.374 562.197 600.857C562.32 612.672 561.999 624.462 561.727 636.301L561.505 638.847C558.934 626.81 558.885 614.402 557.179 602.291Z"></path>
<path fill="#AA835B" d="M913.574 604.367C914.711 604.664 917.01 605.306 918.147 605.603C918.098 608.841 917.999 612.103 917.875 615.341C900.153 693.769 898.275 774.89 878.649 853.07C879.935 855.739 870.196 876.798 880.429 872.151C898.423 854.108 905.566 828.773 915.527 805.86C915.453 812.583 915.478 819.306 915.651 826.079C904.231 886.957 848.618 934.809 787.147 939.654C765.89 939.357 744.633 940.272 723.426 939.06C638.746 934.191 553.719 939.184 468.94 936.539C388.238 916.42 304.596 911.55 222.659 898.549C183.927 885.128 154.044 853.762 119.564 832.925C132.812 875.637 167.985 910.191 210.918 922.673C233.164 930.459 256.62 925.318 278.964 921.141C321.898 917.112 366.71 920.77 407.097 936.712C395.48 936.712 383.962 937.133 372.395 936.786C333.787 928.061 293.622 926.999 255.038 936.366C244.484 936.787 234.004 937.034 223.524 937.231C160.545 931.324 110.32 872.72 104.857 811.125C104.956 806.009 105.105 800.892 105.203 795.801C118.279 814.412 135.68 833.667 158.914 838.586C158.518 834.186 157.801 829.811 157.183 825.461C170.234 858.087 201.254 881.668 235.314 888.415C254.865 891.233 274.688 889.725 294.388 890.467C297.156 896.028 303.879 896.893 309.267 898.376C378.821 910.29 448.943 919.04 519.412 923.167C550.605 930.014 582.366 930.088 614.078 927.27C654.985 924.601 695.471 931.2 735.834 936.786C682.742 919.756 624.855 921.833 570.378 909.202C554.905 904.432 535.849 903.443 524.454 890.541C529.027 890.467 538.172 890.368 542.769 890.318C540.94 891.653 539.161 893.062 537.43 894.52C584.937 905.519 633.827 906.706 682 913.454C722.437 917.26 774.071 935.279 804.35 897.486C805.289 892.84 826.249 880.234 814.064 879.616C841.277 866.837 859.073 840.909 868.466 812.979C869.133 826.87 859.938 838.19 856.132 850.994C869.628 842.219 871.21 823.978 874.769 809.667C880.034 778.276 888.067 747.429 892.219 715.841C895.951 678.345 898.176 639.243 913.574 604.367ZM869.356 846.668C856.33 862.462 836.408 871.731 826.546 890.096C820.91 904.259 808.008 914.343 801.755 927.369C832.651 919.534 866.291 898.895 870.344 864.563C871.358 863.501 874.991 844.666 869.356 846.668Z"></path>
<path fill="#24281D" d="M861.248 613.438L863.597 613.265C863.918 672.586 863.745 731.932 863.695 791.253L861.347 791.302C861.1 735.318 861.397 679.309 861.248 623.325C861.248 620.038 861.248 616.726 861.248 613.438Z"></path>
<path fill="#CB9D68" d="M878.649 853.07C898.275 774.89 900.153 693.768 917.875 615.341C918.073 643.247 918.543 671.177 917.653 699.083C901.216 721.649 900.845 757.267 917.826 779.685C918.617 788.484 917.233 797.234 915.527 805.86C905.566 828.773 898.423 854.108 880.429 872.151C870.196 876.798 879.935 855.739 878.649 853.07Z"></path>
<path fill="#C79C69" d="M105.525 620.112C110.616 658.646 125.076 696.265 124.458 735.293C117.636 726.914 111.902 717.67 105.253 709.192C104.363 679.507 104.931 649.797 105.525 620.112Z"></path>
<path fill="#717F60" d="M858.826 623.325H861.248C861.397 679.309 861.1 735.318 861.347 791.302C860.21 794.169 863.745 801.609 859.024 801.263C858.159 752.719 859.543 704.174 858.53 655.655C817.104 655.556 775.604 649.105 734.326 654.765C730.99 649.525 727.826 644.186 724.662 638.847C764.086 649.13 806.327 638.575 846.517 644.977C866.538 654.691 855.712 630.987 858.826 623.325Z"></path>
<path fill="#262017" d="M869.479 804.377C868.96 745.501 866.612 686.403 870.666 627.65C871.852 684.005 870.493 740.41 871.605 796.789C870.962 799.335 870.27 801.856 869.479 804.377Z"></path>
<path fill="#7B6B54" d="M561.727 636.301L564.273 635.263C565.064 656.767 564.718 678.32 564.644 699.849C567.906 706.844 544.301 703.458 548.429 699.453C571.639 707.511 559.873 679.779 561.999 667.074C561.949 657.632 561.801 648.24 561.504 638.847L561.727 636.301Z"></path>
<path fill="#A15E2E" d="M384.259 652.837C403.711 666.827 427.217 677.851 437.944 700.665C437.549 717.447 441.652 736.826 436.956 752.57C420.321 755.932 401.759 754.523 384.308 753.114C384.037 719.697 384.234 686.255 384.259 652.837Z"></path>
<path fill="#A4B476" d="M734.326 654.765C775.604 649.105 817.104 655.556 858.53 655.655C859.543 704.174 858.159 752.719 859.024 801.263V803.66C839.201 812.213 815.67 813.597 796.737 826.153C798.714 810.903 809.664 798.42 814.014 784.406C800.346 773.333 792.881 801.263 785.367 808.975C780.374 796.591 787.171 769.848 769.87 768.933C764.679 785.741 778.545 809.593 768.164 823.459C760.922 808.752 757.338 791.969 747.155 778.894C733.783 784.554 746.067 798.05 745.326 807.986C710.647 807.838 680.616 828.427 649.473 840.711C648.459 837.201 647.644 833.667 646.803 830.157C645.988 823.459 645.642 816.909 644.702 810.309C643.887 802.795 643.788 795.38 642.181 788.039C637.485 777.979 647.1 779.24 653.749 776.669C658.989 762.358 654.564 742.634 658.025 726.519C668.381 745.131 676.859 765.151 691.294 781.069C705.012 780.995 718.631 775.631 731.113 769.971C748.539 760.208 779.732 748.344 773.577 723.355C760.477 700.516 746.166 678.32 734.326 654.765Z"></path>
<path fill="#A6B779" d="M162.003 655.581C202.811 655.383 243.693 654.567 284.501 656.05C284.921 657.138 285.786 659.337 286.206 660.425C272.884 682.942 257.757 704.891 248.29 729.287C259.734 758.552 291.916 771.133 319.673 779.611C325.135 782.503 334.058 786.111 337.197 778.746C348.172 762.729 358.479 746.119 367.352 728.817C370.714 744.71 366.734 761.493 371.01 777.164C385.396 775.211 386.607 783.714 383.74 795.677C382.627 804.031 381.762 812.509 381.515 820.962C381.416 822.05 381.243 824.2 381.144 825.288C380.18 831.788 379.488 838.487 378.648 845.061C377.14 849.535 377.758 858.952 371.06 853.811C338.285 834.186 302.865 818.194 264.233 815.228C263.689 797.778 242.061 803.735 234.028 813.028C229.134 801.189 225.204 782.997 208.619 786.284C207.977 799.73 220.286 810.062 218.679 823.805C207.161 820.666 202.959 804.698 189.043 806.231C179.948 802.523 164.005 808.579 161.855 795.627C161.929 748.937 161.36 702.246 162.003 655.581ZM196.261 680.1C197.002 693.348 209.336 702.543 214.156 714.407C232.1 714.827 212.994 673.97 196.261 680.1ZM231.631 685.439C223.425 690.876 223.573 704.916 228.838 712.133C240.208 710.403 248.167 681.632 231.631 685.439Z"></path>
<path fill="#D9B887" d="M460.98 667.272C473.067 677.43 483.745 692.681 500.874 693.15L500.602 695.078C492.075 695.227 483.275 693.546 475.267 697.006C451.786 710.378 463.007 679.655 460.98 667.272Z"></path>
<path fill="#C8AD89" d="M544.227 691.964C550.332 683.783 553.793 673.575 561.999 667.074C559.873 679.779 571.639 707.511 548.429 699.453C547.614 698.885 545.958 697.773 545.117 697.204C537.381 693.768 528.285 695.474 520.029 694.905L519.758 692.755C527.964 692.607 535.997 692.384 544.227 691.964Z"></path>
<path fill="#EBE8E1" d="M288.554 675.601C292.138 675.132 296.81 677.084 298.639 680.322C292.707 695.103 284.229 708.796 275.43 722.02C276.122 730.399 263.491 732.426 262.082 725.283C269.3 707.981 280.521 692.557 288.554 675.601Z"></path>
<path fill="#72654E" d="M712.526 683.906C705.63 689.394 701.428 676.467 709.016 674.86C709.288 678.172 708.967 681.954 712.526 683.906Z"></path>
<path fill="#EBE7DF" d="M727.183 677.134C727.356 672.759 733.708 675.478 734.697 678.172C743.447 694.189 753.383 709.538 762.652 725.283C762.504 726.988 762.207 730.449 762.059 732.179L760.032 732.673C750.392 733.39 748.415 722.341 743.669 716.236C738.429 703.186 722.289 692.088 727.183 677.134Z"></path>
<path fill="#7E8E61" d="M196.261 680.1C212.994 673.97 232.101 714.827 214.156 714.407C209.336 702.543 197.002 693.348 196.261 680.1Z"></path>
<path fill="#85795D" d="M316.336 680.471C321.403 685.76 311.912 690.827 308.105 686.057C311.072 684.5 314.136 683.14 316.336 680.471Z"></path>
<path fill="#829264" d="M231.631 685.439C248.167 681.633 240.208 710.403 228.838 712.133C223.573 704.916 223.425 690.877 231.631 685.439Z"></path>
<path fill="#393228" d="M475.267 697.007C483.275 693.546 492.074 695.227 500.602 695.079C507.028 695.079 513.504 695.029 520.029 694.906C528.285 695.474 537.381 693.769 545.117 697.204C521.883 698.218 498.402 695.524 475.366 699.132L475.267 697.007Z"></path>
<path fill="#B68C60" d="M917.826 779.685C900.845 757.267 901.216 721.649 917.653 699.083C918.345 725.95 918.172 752.818 917.826 779.685Z"></path>
<path fill="#734B2A" d="M483.251 704.916C499.094 707.659 526.011 699.28 537.48 707.289C520.203 707.215 502.975 706.943 485.772 707.486C485.426 720.636 485.401 733.81 485.673 746.984C479.395 737.641 484.363 718.016 483.251 704.916Z"></path>
<path fill="#512D17" d="M644.282 704.224C647.347 725.629 646.161 747.33 646.161 768.884C641.193 769.205 636.249 769.106 631.306 769.057C612.422 768.908 593.563 769.427 574.729 768.908C573.938 753.88 574.877 738.852 575.322 723.849C577.868 737.839 576.533 752.2 577.299 766.363C599.322 767.129 621.394 766.758 643.467 766.387C643.788 762.358 643.813 758.305 643.788 754.251C643.813 737.567 643.961 720.883 644.282 704.224Z"></path>
<path fill="#DE9449" d="M485.772 707.487C502.975 706.943 520.203 707.215 537.48 707.289C537.406 720.438 537.529 733.612 537.43 746.787C521.859 746.762 506.361 746.886 490.839 746.886C495.856 735.812 483.622 707.19 505.422 714.877C513.554 712.702 532.635 723.034 535.478 709.933C519.708 709.76 503.914 708.821 488.219 710.057C487.848 722.317 487.823 734.626 488.244 746.91L485.673 746.984C485.401 733.81 485.426 720.636 485.772 707.487Z"></path>
<path fill="#59391C" d="M537.48 707.289C540.149 713.863 544.178 742.906 537.48 749.184L537.43 746.786C537.529 733.612 537.406 720.438 537.48 707.289Z"></path>
<path fill="#EBAF60" d="M488.219 710.057C503.914 708.821 519.708 709.76 535.478 709.933C532.635 723.033 513.554 712.702 505.422 714.877C483.622 707.19 495.856 735.812 490.839 746.885L488.244 746.91C487.823 734.626 487.848 722.317 488.219 710.057Z"></path>
<path fill="#724423" d="M473.042 729.732C450.921 750.791 453.837 693.423 473.067 714.457C455.913 708.599 455.839 736.134 473.042 729.732Z"></path>
<path fill="#A06637" d="M547.465 712.232C568.154 698.045 573.764 739.544 552.31 729.583C542.077 732.154 548.059 718.51 547.465 712.232Z"></path>
<path fill="#C6773D" d="M473.042 729.732C455.839 736.134 455.913 708.599 473.067 714.457C473.413 719.524 473.413 724.64 473.042 729.732Z"></path>
<path fill="#575C3E" d="M367.352 728.817C366.858 725.308 368.341 723.874 371.826 724.541C372.246 742.066 371.777 759.615 371.011 777.164C366.735 761.493 370.714 744.711 367.352 728.817Z"></path>
<path fill="#3A3D2A" d="M653.502 766.239C656.814 757.39 647.125 721.353 658.025 726.519C654.565 742.634 658.989 762.358 653.749 776.669C653.551 773.184 653.452 769.699 653.502 766.239Z"></path>
<path fill="#60564E" d="M762.652 725.283C766.656 724.64 766.978 734.305 762.85 733.934L762.059 732.179C762.207 730.449 762.504 726.988 762.652 725.283Z"></path>
<path fill="#424562" d="M458.929 742.659C466.814 733.662 483.918 745.823 476.256 758.799C499.688 760.159 523.243 759.096 546.724 758.873C547.515 747.874 546.576 731.512 564.224 739.421C565.559 752.447 564.174 765.868 567.511 778.672C581.452 779.24 595.417 778.771 609.406 778.869C615.462 805.243 619.293 832.851 618.577 859.892C605.996 872.3 582.885 871.039 568.525 861.721C546.823 849.708 568.945 804.377 535.849 807.517C515.037 806.305 492.248 803.315 472.548 810.433C464.416 827.389 472.746 856.654 450.748 865.231C436.56 869.655 416.49 870.817 406.949 857.198C406.282 830.948 409.742 804.773 413.623 778.869C428.404 778.795 443.184 779.191 458.015 778.746C458.237 769.724 458.707 751.681 458.929 742.659Z"></path>
<path fill="#A76E35" d="M485.673 746.984L488.243 746.91L490.839 746.885C506.361 746.885 521.858 746.762 537.43 746.787L537.48 749.184C521.364 747.652 497.562 752.892 485.673 746.984Z"></path>
<path fill="#573219" d="M449.067 764.534L451.242 764.509C451.143 765.596 450.946 767.796 450.822 768.908C427.613 768.958 404.354 769.749 381.194 768.735L381.021 766.832C403.687 766.313 426.525 767.846 449.067 764.534Z"></path>
<path fill="#809260" d="M769.87 768.933C787.171 769.848 780.374 796.591 785.367 808.975C792.881 801.263 800.346 773.333 814.014 784.406C809.664 798.42 798.714 810.903 796.737 826.153C815.67 813.597 839.201 812.213 859.024 803.661C852.227 841.082 820.317 872.942 782.228 877.812C738.627 877.812 695.051 877.812 651.45 877.787C650.857 870.841 651.005 864.02 649.67 857.247C647.891 848.349 646.704 839.253 646.803 830.157C647.644 833.667 648.459 837.202 649.473 840.711C680.616 828.427 710.647 807.838 745.325 807.986C746.067 798.05 733.783 784.554 747.155 778.894C757.338 791.969 760.922 808.752 768.164 823.459C778.545 809.593 764.679 785.741 769.87 768.933Z"></path>
<path fill="#535F3E" d="M319.673 779.611C324.048 779.413 332.798 778.968 337.197 778.746C334.058 786.112 325.135 782.503 319.673 779.611Z"></path>
<path fill="#2C2F46" d="M397.186 778.968C401.314 778.944 409.52 778.894 413.623 778.869C409.742 804.773 406.282 830.948 406.949 857.198C416.49 870.817 436.56 869.655 450.748 865.231C472.746 856.654 464.416 827.389 472.548 810.433C492.248 803.315 515.037 806.305 535.849 807.517C568.945 804.377 546.823 849.708 568.525 861.721C582.885 871.039 605.996 872.3 618.577 859.892C619.293 832.851 615.462 805.243 609.406 778.869C615.635 778.845 621.913 778.869 628.216 778.993C635.508 808.159 636.323 846.866 638.869 880.135C609.308 880.382 579.771 880.58 550.234 880.061C546.922 860.51 543.709 840.885 541.954 821.136C522.477 821.086 502.975 820.147 483.572 821.259C479.296 839.995 481.199 860.51 476.429 878.578C448.622 882.533 418.072 879.418 389.252 880.135C389.153 846.396 391.254 812.114 397.186 778.968Z"></path>
<path fill="#819361" d="M208.619 786.285C225.205 782.997 229.135 801.189 234.029 813.028C242.062 803.735 263.689 797.778 264.233 815.228C302.866 818.194 338.285 834.186 371.06 853.812C377.758 858.953 377.14 849.535 378.648 845.062C378.796 847.039 379.068 851.043 379.192 853.021C377.931 860.782 382.578 871.459 376.275 877.762C331.117 877.836 285.959 877.836 240.826 877.812C200.166 873.214 163.783 836.658 161.855 795.628C164.005 808.579 179.948 802.524 189.043 806.231C202.959 804.699 207.161 820.666 218.679 823.805C220.286 810.062 207.977 799.731 208.619 786.285Z"></path>
<path fill="#505538" d="M642.181 788.039C643.788 795.38 643.887 802.795 644.702 810.309C636.051 813.226 642.824 793.428 642.181 788.039Z"></path>
<path fill="#576041" d="M381.515 820.963C381.762 812.509 382.627 804.031 383.74 795.677C383.863 799.162 384.012 802.672 384.209 806.182C383.542 809.865 382.183 817.255 381.515 820.963Z"></path>
<path fill="#767770" d="M927.095 823.162C927.713 819.603 928.924 812.484 929.517 808.925C932.384 812.657 933.101 822.47 927.095 823.162Z"></path>
<path fill="#7A7B75" d="M93.5865 811.224C95.1683 814.981 95.5391 819.059 95.7368 823.113C90.5215 822.841 91.0406 814.314 93.5865 811.224Z"></path>
<path fill="#636B46" d="M644.702 810.309C645.641 816.909 645.987 823.459 646.803 830.157C640.525 830.305 644.752 815.871 644.702 810.309Z"></path>
<path fill="#71716A" d="M95.7368 823.113C97.4422 826.054 97.8872 829.49 97.6153 832.851C93.0426 833.173 93.3639 825.51 95.7368 823.113Z"></path>
<path fill="#6C6D67" d="M925.439 832.876C925.117 829.515 925.537 826.153 927.095 823.162C929.616 825.461 930.036 833.222 925.439 832.876Z"></path>
<path fill="#535B3F" d="M378.648 845.061C379.489 838.487 380.181 831.788 381.145 825.288C383.147 837.028 382.504 846.273 379.192 853.02C379.068 851.043 378.796 847.039 378.648 845.061Z"></path>
<path fill="#A1AE76" d="M490.443 840.711C485.846 820.369 516.89 835.249 527.593 830.775C534.662 828.625 532.24 836.46 532.685 840.736C537.579 864.267 504.26 848.991 490.789 853.169C490.666 849.016 490.567 844.839 490.443 840.711Z"></path>
<path fill="#CB9D6A" d="M119.564 832.926C154.044 853.762 183.927 885.128 222.659 898.549C304.596 911.551 388.238 916.42 468.94 936.539C448.301 936.935 427.687 937.726 407.097 936.712C366.71 920.77 321.898 917.112 278.964 921.141C256.62 925.318 233.164 930.459 210.918 922.673C167.985 910.191 132.812 875.637 119.564 832.926Z"></path>
<path fill="#4A5339" d="M489.01 863.748C490.542 857.494 484.215 843.406 490.443 840.711C490.567 844.839 490.666 849.016 490.789 853.169C490.27 856.703 489.702 860.238 489.01 863.748Z"></path>
<path fill="#829262" d="M532.685 840.736C537.109 845.605 535.33 859.669 537.801 867.974C537.925 889.354 503.939 873.906 488.169 877.886C483.819 876.897 489.479 867.925 489.01 863.748C489.702 860.238 490.27 856.703 490.789 853.169C504.26 848.992 537.579 864.267 532.685 840.736Z"></path>
<path fill="#C99D66" d="M869.356 846.668C874.991 844.666 871.358 863.501 870.344 864.563C866.291 898.895 832.651 919.534 801.755 927.369C808.008 914.344 820.91 904.259 826.546 890.096C836.408 871.731 856.33 862.462 869.356 846.668Z"></path>
<path fill="#454F34" d="M649.67 857.247C651.005 864.019 650.857 870.841 651.45 877.787C645.295 875.834 649.918 863.278 649.67 857.247Z"></path>
<path fill="#505B3D" d="M537.801 867.974C551.692 889.009 496.696 880.456 488.169 877.886C503.939 873.906 537.925 889.355 537.801 867.974Z"></path>
<path fill="#465034" d="M240.826 877.812C285.959 877.836 331.117 877.836 376.275 877.762C338.409 881.94 280.274 882.014 240.826 877.812Z"></path>
<path fill="#545F3F" d="M651.45 877.787C695.051 877.812 738.627 877.812 782.228 877.812C743.076 883.422 694.112 878.998 651.154 880.135L651.45 877.787Z"></path>
<path fill="#C79B67" d="M785.392 888.663C795.254 886.759 804.671 883.126 814.064 879.616C826.249 880.234 805.289 892.84 804.35 897.486C774.071 935.279 722.437 917.26 682 913.454C633.827 906.706 584.937 905.52 537.43 894.52C539.161 893.062 540.94 891.653 542.769 890.319C623.594 888.885 704.691 892.395 785.392 888.663Z"></path>
<path fill="#453826" d="M235.314 888.415C418.64 887.377 602.065 886.883 785.392 888.662C704.691 892.395 623.594 888.885 542.769 890.318C538.172 890.368 529.026 890.467 524.454 890.541C447.757 889.874 371.06 890.022 294.388 890.467C274.688 889.725 254.865 891.233 235.314 888.415Z"></path>
<path fill="#C99D68" d="M294.388 890.467C371.06 890.022 447.757 889.874 524.454 890.541C535.848 903.443 554.905 904.432 570.378 909.202C624.855 921.833 682.742 919.757 735.834 936.787C695.471 931.201 654.985 924.601 614.078 927.271C582.366 930.088 550.605 930.014 519.412 923.168C448.943 919.04 378.821 910.29 309.267 898.376C303.879 896.893 297.156 896.028 294.388 890.467Z"></path>
<path fill="#C6986A" d="M255.038 936.366C293.621 926.998 333.787 928.061 372.395 936.786C333.268 937.157 294.14 937.701 255.038 936.366Z"></path>
<path fill="#997555" d="M223.524 937.232C234.004 937.034 244.484 936.787 255.038 936.367C294.141 937.701 333.268 937.157 372.395 936.787C383.962 937.133 395.48 936.713 407.097 936.713C427.687 937.726 448.301 936.935 468.94 936.54C553.719 939.184 638.746 934.191 723.426 939.061C597.171 940.297 470.917 939.258 344.662 939.605C304.349 939.456 264.01 939.876 223.697 939.506L223.524 937.232Z"></path>
<path fill="#282018" d="M344.662 939.604C470.917 939.258 597.171 940.296 723.426 939.061C744.633 940.272 765.89 939.357 787.146 939.654L787.097 942.051C639.66 942.002 492.198 942.274 344.785 941.928L344.662 939.604Z"></path>
<path fill="#72726D" d="M214.082 947.019C217.295 946.5 220.632 946.822 223.549 948.379C221.448 951.098 213.711 951.543 214.082 947.019Z"></path>
<path fill="#70706B" d="M799.505 948.404C802.397 946.822 805.709 946.525 808.972 946.995C809.318 951.518 801.557 951.122 799.505 948.404Z"></path>
<path fill="#807F7B" d="M228.245 949.417C417.083 949.541 605.922 949.491 794.76 949.442L794.414 951.889C605.847 951.938 417.256 952.161 228.69 951.79L228.245 949.417Z"></path>
</svg>
